<svg width="375" height="466" viewBox="0 0 375 466" fill="none" xmlns="http://www.w3.org/2000/svg">
<g filter="url(#filter0_d_37_5)">
<g filter="url(#filter1_d_37_5)">
<rect width="375" height="217" fill="#3E6245"/>
<path d="M22.5 210.5C262 210.5 190 382.5 382 453" stroke="#3E6245" stroke-width="10"/>
<path d="M179.176 186.203C187.944 189.252 192.969 202.45 197.375 209.794C202.931 219.054 208.075 228.474 213.92 237.552C220.508 247.785 225.614 258.834 232.18 269.048C234.864 273.224 238.604 283.272 244.435 284.244C246.317 284.558 254.883 285.568 255.894 283.386C259.946 274.641 254.53 257.612 252.34 249.072C249.038 236.201 245.71 222.492 240.452 210.223C240.043 209.268 236.53 200.005 236.53 203.85C236.53 216.836 232.119 229.396 232.119 242.515C232.119 248.562 231.996 254.43 231.016 260.408C230.682 262.443 230.222 268.196 229.3 266.352C226.082 259.916 224.245 251.738 222.008 245.028C216.927 229.786 212.767 214.457 209.079 198.826C205.498 183.648 201.236 168.099 201.236 152.379C201.236 152.301 209.135 163.96 210.549 167.575C219.075 189.361 217.888 214.266 228.626 235.407C228.693 235.54 233.45 243.248 234.079 240.493C236.041 231.913 234.324 221.168 234.324 212.429C234.324 207.69 234.324 202.952 234.324 198.213C234.324 197.46 234.297 195.46 234.815 196.007C242.021 203.614 244.098 218.314 247.07 227.87C252.173 244.277 259.429 261.311 259.693 278.729C259.878 290.94 259.605 303.16 259.693 315.372C259.741 322.075 262.486 341.83 260.367 335.471C256.681 324.412 253.639 313.292 249.276 302.443C242.659 285.991 234.663 270.018 229.545 252.993C225.495 239.524 223.295 197.2 223.295 211.265C223.295 223.641 229.493 235.419 232.731 247.111C234.951 255.125 235.284 263.659 236.285 271.866C237.071 278.308 238.793 284.305 240.084 290.617C241.013 295.154 239.913 294.802 241.432 291.842C248.361 278.349 251.562 260.666 253.933 245.763C254.818 240.2 254.178 243.615 254.178 246.866" stroke="#3E6245" stroke-width="19" stroke-linecap="round"/>
<path d="M127 213C129.497 213.832 131.767 215.107 134.222 216C135.351 216.41 136.339 217.5 137.5 217.5C140.702 217.5 144.419 218.014 147.5 219C151.914 220.413 142.862 219.184 141.889 219C138.294 218.322 135.023 217.557 131.611 216.222C128.791 215.119 125.408 214.5 122.389 214.5C119.533 214.5 120.303 214.5 123.278 214.5C133.441 214.5 142.87 216.229 152.444 219.5C156.183 220.777 159.851 222.126 163.5 223.639C165.952 224.656 165.923 224.55 162.722 224.472C154.977 224.283 146.681 222.563 139.389 219.889C135.54 218.478 131.587 216.098 127.389 216C124.566 215.934 122.991 214.83 120.5 214" stroke="#3E6245" stroke-width="19" stroke-linecap="round"/>
<path d="M158 224.5C159.126 229.228 165.819 234.501 170.556 235.028C172.709 235.267 173.478 236.687 175.222 237.611C177.227 238.673 178.587 239.587 180.194 241.194C183.046 244.046 186.157 246.271 189.5 248.5" stroke="#3E6245" stroke-width="19" stroke-linecap="round"/>
<path d="M182.5 219C184.861 219.131 187.78 221.725 189.389 223.333C192.116 226.061 194.835 229.256 197.333 232.222C201.504 237.175 206.162 243.04 208.222 249.222C209.003 251.563 207.555 247.832 206.75 249.194C205.575 251.182 206.094 253.915 204.889 255.778C204.434 256.481 200.685 256 199.722 256C198.99 256 195.257 256.148 194.722 256.611C192.715 258.351 200.859 266.354 202.75 267.25C204.763 268.204 205.671 270.338 207.167 271.889C208.713 273.492 210.183 275.295 211.389 277.167C212.279 278.548 213.868 279.129 214.75 280.5C216.477 283.187 219.755 284.874 222.167 286.778C225.175 289.152 225.694 292.508 228.111 295.111C231.578 298.844 234.5 304.05 237.444 308.222C240.51 312.565 242.985 317.357 246.222 321.611C248.752 324.936 250.549 328.906 252.778 332.472C253.885 334.243 254.639 336.216 255.75 337.944C256.808 339.59 258.183 340.774 259 342.667C260.083 345.175 262.036 346.683 263.75 348.778C264.513 349.71 268.763 354.21 266 352" stroke="#3E6245" stroke-width="19" stroke-linecap="round"/>
<path d="M274.5 359.5C276.249 362.474 277.406 365.509 279.694 368.194C281.029 369.761 282.426 370.426 283.778 371.778C286.024 374.024 288.877 375.592 291.222 377.75C292.051 378.512 296.913 383.937 295 380.111C293.37 376.852 296.436 387.551 298.722 390.389C299.914 391.868 301.853 394.248 303.333 395.333C305.75 397.106 308.722 398.553 310.944 400.528C311.712 401.21 312.219 402.122 313.056 402.75C314.319 403.698 316.147 403.925 317.528 404.778C322.914 408.105 326.073 412.784 330.5 417C334.14 420.466 340.086 422.404 344.5 424.611C348.607 426.665 352.321 428.114 356.111 430.5C357.661 431.476 360.258 432.017 361 433.5" stroke="#3E6245" stroke-width="19" stroke-linecap="round"/>
<path d="M163 194.5C163 199.041 164.51 201.339 167.111 205.111C170.478 209.993 172.708 215.022 175.667 220.111C177.937 224.016 179.98 227.96 182 232" stroke="#3E6245" stroke-width="19" stroke-linecap="round"/>
<path d="M186 232C188.492 234.368 191.2 236.606 193.778 238.889C197.419 242.114 201.712 244.365 205.222 247.694C207.425 249.785 209.216 251.82 211.278 254C212.725 255.53 213.354 257.548 214.778 259.056C215.917 260.262 217.01 262.603 217.472 264.222C218.084 266.365 220.152 267.784 221.222 269.722C223.272 273.434 226.307 276.719 228.972 280C229.994 281.258 230.375 282.666 231.222 284C233.014 286.824 232.5 283.886 232.5 282" stroke="#3E6245" stroke-width="19" stroke-linecap="round"/>
<path d="M267.5 209.5C268.937 211.451 269.943 213.729 270.889 215.944C273.736 222.616 276.352 229.401 279.111 236.111C283.605 247.042 287.23 258.369 290.694 269.667C292.505 275.57 292.099 277.455 286.083 279.75C282.596 281.08 278.952 282.295 275.167 281.833C269.633 281.159 267.147 275.902 265.056 271.333C260.377 261.111 256.187 249.286 256 237.889C255.853 228.902 257.86 220.323 258.528 211.417C258.754 208.402 259.097 205.389 259.472 202.389C259.631 201.118 259.912 200.819 260 202.111C260.364 207.443 261.5 212.544 261.5 218C261.5 225.121 261.289 231.93 263.306 238.833C267.435 252.973 268.688 268.061 273.5 281.944C274.138 283.784 275.169 287.874 276.778 286.778C278.162 285.834 278.41 276.612 278.528 275.722C279.588 267.692 280.5 259.609 280.5 251.5C280.5 249.593 280.49 255.315 280.5 257.222C280.521 261.282 280.486 265.436 281.222 269.444C282.093 274.189 284.639 278.358 286.667 282.667C291.56 293.065 295.844 303.539 296 315.167C296.019 316.612 296.334 318.672 296 320.111C295.266 323.272 289.783 325.541 287.167 326.5C282.302 328.284 278.62 327.55 275.111 323.778C271.822 320.242 271.531 317.026 271.5 312.278C271.472 308.006 270.96 303.768 273.389 300C276.203 295.633 283.255 300.7 285.333 303.278C288.63 307.368 289.919 313.283 291.333 318.167C293.79 326.647 295.962 335.258 297.083 344.028C297.46 346.973 298.892 350.606 295.556 351.611C293.982 352.085 292.059 352.923 290.778 351.389C288.254 348.367 286.783 343.504 286.111 339.694C285.522 336.356 285.265 333.078 285 329.722C284.926 328.78 282.855 327.807 282 327.611C278.81 326.882 278.246 332.656 277.75 334.583C276.371 339.939 272.131 349.644 277.5 354.417C278.775 355.55 279.096 353.868 279.361 354.194C283.831 359.696 288.442 365.13 293.667 369.944C300.996 376.698 308.238 383.711 317.222 388.167C317.861 388.484 323.618 392.107 324.417 390.111C325.196 388.162 324.987 385.544 325.333 383.5C326.224 378.252 327.936 373.38 328.389 368.056C328.788 363.371 329 358.645 329 353.944C329 347.524 330.033 339.625 328.056 333.389C326.983 330.007 324.134 321.847 320.222 320.611C318.832 320.172 314.094 332.422 313.667 333.611C310.563 342.244 311.009 353.711 312 362.667C312.497 367.158 314.456 371.186 316.111 375.333C317.54 378.914 318.751 382.727 321.028 385.889C323.926 389.914 326.434 392.323 327.722 397.25C327.985 398.255 329.182 401.3 327.556 401.861C325.701 402.501 322.589 402.089 321 401C307.205 391.546 305.424 371.997 306.611 356.861C306.99 352.036 312.176 345.581 316.278 343.222C319.162 341.564 317.629 339.07 317.528 335.972C317.284 328.532 319.205 319.383 314.806 312.889C313.791 311.391 312.705 310.117 311.167 309.194C309.77 308.356 308.726 307.437 307.917 305.972C304.901 300.515 303.26 293.92 301.833 287.889C300.665 282.946 299.566 277.918 299.5 272.833C299.475 270.927 299.5 269.018 299.5 267.111C299.5 266.992 299.462 263.524 299.75 263.639C301.232 264.232 300.5 272.695 300.5 273.889C300.5 283.297 300.695 292.539 302.611 301.778C303.831 307.658 304.417 313.683 305.75 319.528C306.818 324.208 308.897 328.54 309.611 333.333C310.514 339.398 311.188 345.358 311 351.5C310.942 353.382 309.861 353.047 308.167 352.778C298.89 351.303 296.392 341.892 293.111 334.194C290.461 327.978 287.093 321.179 285.806 314.444C284.656 308.433 285.019 302.027 285 295.944C284.988 292.129 284.729 288.134 285.222 284.333C286.382 275.397 289.596 266.568 292.5 258.083C293.411 255.423 294.243 252.594 295.806 250.222C296.722 248.831 297.79 247.49 298.389 245.917C299.132 243.966 300.809 246.781 301.778 247.778C307.409 253.57 309 261.718 309 269.5" stroke="#3E6245" stroke-width="19" stroke-linecap="round"/>
<path d="M326 208C322.258 222.37 318.535 236.467 315.972 251.111C314.518 259.423 313.269 267.881 311.389 276.111C310.244 281.126 308.196 285.949 306.917 290.944C306.806 291.377 306.372 295.402 305.278 293.444C302.76 288.938 301.84 283.446 301.389 278.389C300.757 271.316 301 264.149 301 257.056C301 251.672 300.633 246.121 301.861 240.833C303.758 232.668 312 226.921 312 218.5C312 216.623 311.785 215.748 309.583 215.528C304.901 215.06 301.639 221.55 298.806 224.333C296.229 226.865 293.194 229.025 290.111 230.889C289.065 231.522 286.676 233.383 285.25 232.944C282.698 232.159 282 225.963 282 223.778C282 220.23 286.806 219.205 289.778 218.611C290.536 218.459 292.767 218.064 293 219.111C293.867 223.012 294.5 226.567 294.5 230.583C294.5 235.808 294.994 239.81 298.389 243.972C304.287 251.202 309.26 258.972 314 267C317.253 272.51 322.361 278.955 323.833 285.333C324.441 287.967 324 291.102 324 293.778C324 302.748 323.879 311.726 324.056 320.694C324.258 330.987 325.469 341.261 325.889 351.556C326.09 356.494 325.134 361.721 327.111 366.333C328.878 370.456 330.144 374.77 331.917 378.889C332.578 380.426 334.517 382.248 334.778 383.889C335.693 389.649 334.631 395.998 334.528 401.806C334.473 404.888 334.5 407.973 334.5 411.056C334.5 415.581 337.939 415.432 341.278 416.5C342.524 416.899 343.748 417.243 345 417.611C346.419 418.028 346.772 419.548 348.222 419.889C350.822 420.5 353.521 420.621 356.111 421.389C358.293 422.035 358 420.43 358 418.722C358 415.526 358.132 412.3 357.889 409.111C357.228 400.436 357.118 391.697 357 383C356.928 377.643 356 372.354 356 367" stroke="#3E6245" stroke-width="19" stroke-linecap="round"/>
<path d="M354.5 360.5C354.5 348.922 354 337.308 354 325.694C354 321.889 353.613 318.332 353.111 314.556C352.095 306.914 352.04 299.421 352 291.722C351.927 277.62 350.597 263.634 349.972 249.583C349.522 239.462 349.5 229.358 349.5 219.222C349.5 215.617 343.845 216 341 216" stroke="#3E6245" stroke-width="19" stroke-linecap="round"/>
<path d="M339.5 216C338.91 217.254 338.143 218.269 337.528 219.5C337.085 220.385 337.057 221.097 336.917 222.056C336.363 225.841 335.077 229.476 334.333 233.222C332.984 240.02 334 248 334 254.861C334 271.612 333.504 287.897 337.694 304.194C342.155 321.54 344 339.025 344 356.944C344 374.13 344 391.315 344 408.5" stroke="#3E6245" stroke-width="19" stroke-linecap="round"/>
<path d="M344 408.5C343.851 405.671 342.793 403.268 341.722 400.667C339.85 396.121 339.045 391.537 337.75 386.833C336.391 381.899 335.619 376.915 335.028 371.833C334.711 369.106 333.794 366.583 333.5 363.861C333.285 361.872 332.402 360.069 332.111 358.056C331.013 350.448 329.482 342.855 328.611 335.222C327.198 322.832 327.103 310.546 327 298.111C326.92 288.417 324.904 278.698 325.75 269.056C326.116 264.884 326 260.684 326 256.5C326 252.811 325.859 249.022 326.611 245.389C328 238.677 331.637 231.984 335 226.111C339.598 218.082 344.549 209.983 350.861 203.167C353.638 200.168 356.766 197.365 360.056 194.944C361.707 193.729 362.354 192.917 362.528 195C363.064 201.43 362.686 207.999 361.889 214.444C361.472 217.814 359.466 220.737 359 224C358.664 226.349 357.65 228.685 357.25 231.083C356.64 234.745 356 238.483 356 242.194C356 247.469 355.22 253.379 356.5 258.5" stroke="#3E6245" stroke-width="19" stroke-linecap="round"/>
<rect x="358" y="213" width="24" height="235" fill="#3E6245"/>
</g>
</g>
<defs>
<filter id="filter0_d_37_5" x="-4" y="0" width="391.723" height="465.694" filterUnits="userSpaceOnUse" color-interpolation-filters="sRGB">
<feFlood flood-opacity="0" result="BackgroundImageFix"/>
<feColorMatrix in="SourceAlpha" type="matrix" values="0 0 0 0 0 0 0 0 0 0 0 0 0 0 0 0 0 0 127 0" result="hardAlpha"/>
<feOffset dy="4"/>
<feGaussianBlur stdDeviation="2"/>
<feComposite in2="hardAlpha" operator="out"/>
<feColorMatrix type="matrix" values="0 0 0 0 0 0 0 0 0 0 0 0 0 0 0 0 0 0 0.25 0"/>
<feBlend mode="normal" in2="BackgroundImageFix" result="effect1_dropShadow_37_5"/>
<feBlend mode="normal" in="SourceGraphic" in2="effect1_dropShadow_37_5" result="shape"/>
</filter>
<filter id="filter1_d_37_5" x="0" y="-29" width="390.723" height="486.694" filterUnits="userSpaceOnUse" color-interpolation-filters="sRGB">
<feFlood flood-opacity="0" result="BackgroundImageFix"/>
<feColorMatrix in="SourceAlpha" type="matrix" values="0 0 0 0 0 0 0 0 0 0 0 0 0 0 0 0 0 0 127 0" result="hardAlpha"/>
<feOffset dx="7" dy="-29"/>
<feComposite in2="hardAlpha" operator="out"/>
<feColorMatrix type="matrix" values="0 0 0 0 0 0 0 0 0 0 0 0 0 0 0 0 0 0 0.25 0"/>
<feBlend mode="normal" in2="BackgroundImageFix" result="effect1_dropShadow_37_5"/>
<feBlend mode="normal" in="SourceGraphic" in2="effect1_dropShadow_37_5" result="shape"/>
</filter>
</defs>
</svg>
