<svg width="1280" height="602" viewBox="0 0 1280 602" fill="none" xmlns="http://www.w3.org/2000/svg">
<g filter="url(#filter0_d_57_371)">
<rect x="-48" width="982.657" height="279.753" fill="#3E6245"/>
<path d="M10.9595 271.373C638.55 271.373 449.88 493.113 953 584" stroke="#3E6245" stroke-width="10"/>
<path d="M421.517 240.049C444.492 243.981 457.66 260.996 469.206 270.463C483.766 282.401 497.244 294.545 512.559 306.248C529.824 319.441 543.203 333.685 560.409 346.852C567.444 352.236 577.243 365.19 592.522 366.443C597.453 366.847 619.899 368.149 622.549 365.337C633.169 354.062 618.976 332.109 613.236 321.099C604.584 304.507 595.864 286.833 582.085 271.016C581.013 269.784 571.809 257.844 571.809 262.8C571.809 279.542 560.248 295.733 560.248 312.647C560.248 320.442 559.926 328.007 557.358 335.713C556.484 338.337 555.279 345.754 552.862 343.376C544.43 335.079 539.616 324.536 533.754 315.885C520.441 296.236 509.539 276.474 499.874 256.323C490.49 236.756 479.322 216.71 479.322 196.444C479.322 196.343 500.021 211.374 503.728 216.035C526.067 244.122 522.957 276.229 551.096 303.483C551.272 303.654 563.736 313.591 565.386 310.04C570.526 298.978 566.028 285.126 566.028 273.86C566.028 267.751 566.028 261.642 566.028 255.533C566.028 254.562 565.956 251.984 567.313 252.689C586.196 262.495 591.638 281.447 599.427 293.767C612.798 314.918 631.812 336.877 632.504 359.333C632.989 375.075 632.275 390.829 632.504 406.572C632.629 415.214 639.825 440.681 634.27 432.483C624.611 418.227 616.641 403.891 605.207 389.904C587.869 368.694 566.917 348.102 553.504 326.155C542.893 308.791 537.126 254.227 537.126 272.359C537.126 288.314 553.369 303.498 561.854 318.571C567.669 328.903 568.544 339.904 571.167 350.486C573.225 358.79 577.739 366.521 581.122 374.658C583.554 380.508 580.672 380.053 584.654 376.238C602.811 358.843 611.197 336.046 617.41 316.833C619.729 309.662 618.053 314.065 618.053 318.255" stroke="#3E6245" stroke-width="19" stroke-linecap="round"/>
<path d="M284.793 274.596C291.337 275.669 297.284 277.312 303.718 278.463C306.676 278.993 309.264 280.397 312.307 280.397C320.697 280.397 330.437 281.06 338.512 282.331C350.079 284.152 326.357 282.568 323.808 282.331C314.388 281.457 305.817 280.471 296.876 278.75C289.485 277.327 280.622 276.53 272.71 276.53C265.226 276.53 267.243 276.53 275.039 276.53C301.672 276.53 326.38 278.759 351.468 282.976C361.264 284.622 370.875 286.361 380.438 288.311C386.864 289.622 386.788 289.486 378.4 289.386C358.105 289.142 336.366 286.924 317.257 283.477C307.171 281.658 296.813 278.589 285.812 278.463C278.414 278.379 274.288 276.956 267.76 275.885" stroke="#3E6245" stroke-width="19" stroke-linecap="round"/>
<path d="M366.026 289.422C368.976 295.517 386.515 302.315 398.927 302.994C404.571 303.302 406.584 305.133 411.156 306.324C416.41 307.693 419.972 308.871 424.185 310.944C431.656 314.62 439.81 317.489 448.57 320.362" stroke="#3E6245" stroke-width="19" stroke-linecap="round"/>
<path d="M430.227 282.331C436.413 282.5 444.063 285.844 448.278 287.918C455.426 291.434 462.551 295.553 469.096 299.377C480.025 305.762 492.23 313.324 497.63 321.293C499.674 324.311 495.881 319.501 493.772 321.257C490.694 323.82 492.053 327.343 488.895 329.744C487.702 330.651 477.879 330.031 475.356 330.031C473.437 330.031 463.655 330.221 462.254 330.819C456.995 333.061 478.335 343.38 483.29 344.534C488.566 345.764 490.944 348.515 494.864 350.515C498.915 352.582 502.767 354.905 505.928 357.319C508.26 359.099 512.425 359.848 514.735 361.616C519.261 365.08 527.849 367.254 534.17 369.709C542.052 372.77 543.412 377.096 549.747 380.452C558.831 385.265 566.487 391.976 574.204 397.355C582.237 402.953 588.723 409.131 597.205 414.616C603.834 418.902 608.544 424.02 614.384 428.618C617.284 430.9 619.26 433.444 622.172 435.672C624.944 437.794 628.547 439.32 630.689 441.76C633.526 444.993 638.644 446.937 643.136 449.638C645.134 450.84 656.271 456.642 649.032 453.792" stroke="#3E6245" stroke-width="19" stroke-linecap="round"/>
<path d="M671.305 463.461C675.889 467.295 678.921 471.208 684.916 474.67C688.412 476.689 692.074 477.547 695.616 479.29C701.503 482.186 708.978 484.207 715.124 486.989C717.295 487.972 730.036 494.966 725.023 490.033C720.753 485.831 728.787 499.625 734.777 503.283C737.9 505.19 742.982 508.258 746.86 509.657C753.193 511.942 760.982 513.807 766.804 516.354C768.815 517.233 770.143 518.409 772.336 519.219C775.648 520.44 780.438 520.733 784.055 521.833C798.171 526.122 806.448 532.154 818.048 537.589C827.585 542.058 843.167 544.556 854.734 547.402C865.496 550.049 875.229 551.917 885.16 554.993C889.222 556.252 896.027 556.949 897.971 558.861" stroke="#3E6245" stroke-width="19" stroke-linecap="round"/>
<path d="M379.128 250.746C379.128 256.601 383.085 259.563 389.901 264.426C398.723 270.719 404.567 277.202 412.32 283.764C418.27 288.798 423.623 293.882 428.916 299.09" stroke="#3E6245" stroke-width="19" stroke-linecap="round"/>
<path d="M439.398 299.091C445.929 302.143 453.025 305.028 459.779 307.972C469.32 312.129 480.571 315.031 489.768 319.324C495.541 322.018 500.232 324.642 505.636 327.453C509.428 329.424 511.077 332.027 514.808 333.97C517.794 335.526 520.656 338.543 521.868 340.631C523.473 343.393 528.891 345.223 531.695 347.721C537.067 352.507 545.018 356.742 552.003 360.971C554.681 362.593 555.68 364.408 557.899 366.128C562.595 369.769 561.247 365.981 561.247 363.55" stroke="#3E6245" stroke-width="19" stroke-linecap="round"/>
<path d="M652.962 270.084C656.728 272.598 659.365 275.536 661.842 278.392C669.304 286.993 676.159 295.74 683.388 304.39C695.165 318.483 704.663 333.085 713.741 347.65C718.485 355.26 717.422 357.691 701.658 360.649C692.519 362.364 682.972 363.93 673.052 363.335C658.552 362.465 652.036 355.688 646.557 349.798C634.297 336.62 623.317 321.375 622.827 306.682C622.441 295.097 627.701 284.036 629.451 272.555C630.044 268.668 630.943 264.783 631.926 260.916C632.342 259.278 633.078 258.893 633.309 260.558C634.262 267.432 637.24 274.008 637.24 281.042C637.24 290.222 636.688 299 641.971 307.9C652.792 326.129 656.074 345.579 668.685 363.478C670.355 365.849 673.059 371.123 677.274 369.709C680.902 368.492 681.552 356.603 681.86 355.456C684.637 345.104 687.028 334.684 687.028 324.229C687.028 321.77 687.001 329.147 687.028 331.606C687.083 336.84 686.992 342.195 688.92 347.363C691.203 353.48 697.874 358.855 703.187 364.409C716.009 377.814 727.235 391.318 727.644 406.307C727.695 408.171 728.52 410.826 727.644 412.682C725.721 416.757 711.353 419.681 704.497 420.918C691.75 423.218 682.101 422.272 672.906 417.409C664.288 412.851 663.524 408.704 663.444 402.583C663.372 397.076 662.03 391.613 668.393 386.755C675.768 381.125 694.248 387.657 699.693 390.98C708.332 396.254 711.708 403.879 715.415 410.175C721.853 421.107 727.545 432.209 730.483 443.515C731.469 447.312 735.221 451.996 726.479 453.291C722.356 453.902 717.318 454.983 713.96 453.005C707.346 449.108 703.493 442.839 701.731 437.928C700.187 433.624 699.514 429.398 698.819 425.072C698.624 423.857 693.198 422.603 690.958 422.351C682.599 421.411 681.122 428.855 679.821 431.339C676.207 438.244 665.098 450.755 679.166 456.908C682.506 458.369 683.349 456.201 684.043 456.621C695.756 463.714 707.839 470.719 721.53 476.926C740.734 485.632 759.713 494.674 783.255 500.418C784.929 500.826 800.016 505.497 802.108 502.925C804.15 500.412 803.601 497.036 804.51 494.402C806.843 487.637 811.329 481.355 812.517 474.491C813.561 468.452 814.118 462.358 814.118 456.299C814.118 448.022 816.824 437.838 811.643 429.799C808.833 425.44 801.368 414.919 791.116 413.326C787.473 412.76 775.059 428.552 773.938 430.086C765.804 441.215 766.975 455.998 769.571 467.544C770.873 473.334 776.006 478.526 780.344 483.873C784.088 488.489 787.261 493.405 793.227 497.481C800.821 502.67 807.393 505.776 810.77 512.128C811.458 513.424 814.596 517.349 810.333 518.072C805.472 518.897 797.318 518.366 793.155 516.962C757.006 504.775 752.339 479.573 755.45 460.059C756.441 453.838 770.031 445.517 780.78 442.476C788.339 440.338 784.322 437.123 784.056 433.13C783.417 423.538 788.45 411.743 776.922 403.371C774.264 401.44 771.417 399.798 767.387 398.608C763.727 397.528 760.992 396.343 758.871 394.454C750.967 387.418 746.667 378.917 742.93 371.141C739.867 364.77 736.99 358.286 736.816 351.732C736.75 349.274 736.816 346.813 736.816 344.355C736.816 344.202 736.716 339.73 737.471 339.879C741.355 340.643 739.436 351.553 739.436 353.093C739.436 365.221 739.947 377.136 744.968 389.047C748.164 396.627 749.7 404.395 753.193 411.93C755.99 417.964 761.44 423.549 763.311 429.728C765.678 437.546 767.443 445.23 766.95 453.148C766.799 455.575 763.965 455.142 759.526 454.795C735.217 452.894 728.671 440.761 720.074 430.838C713.131 422.823 704.304 414.058 700.93 405.376C697.919 397.627 698.87 389.368 698.819 381.526C698.788 376.608 698.109 371.457 699.402 366.558C702.441 355.037 710.863 343.654 718.473 332.717C720.859 329.286 723.041 325.64 727.135 322.582C729.536 320.788 732.333 319.06 733.904 317.032C735.851 314.517 740.246 318.146 742.784 319.431C757.54 326.898 761.71 337.402 761.71 347.435" stroke="#3E6245" stroke-width="19" stroke-linecap="round"/>
<path d="M806.256 268.15C796.451 286.675 786.695 304.849 779.979 323.728C776.168 334.444 772.895 345.348 767.969 355.958C764.968 362.422 759.603 368.64 756.25 375.081C755.96 375.638 754.822 380.827 751.956 378.304C745.357 372.495 742.948 365.413 741.765 358.894C740.11 349.776 740.746 340.536 740.746 331.392C740.746 324.451 739.783 317.295 743.002 310.478C747.973 299.952 769.571 292.543 769.571 281.687C769.571 279.267 769.008 278.139 763.238 277.855C750.968 277.251 742.421 285.618 734.996 289.207C728.244 292.47 720.292 295.255 712.213 297.658C709.471 298.474 703.211 300.874 699.474 300.308C692.787 299.296 690.958 291.308 690.958 288.491C690.958 283.917 703.553 282.596 711.339 281.83C713.326 281.634 719.173 281.124 719.783 282.474C722.054 287.503 723.713 292.086 723.713 297.264C723.713 304 725.007 309.16 733.904 314.525C749.359 323.845 762.392 333.862 774.811 344.212C783.335 351.315 796.722 359.624 800.579 367.847C802.172 371.243 801.016 375.284 801.016 378.733C801.016 390.297 800.698 401.872 801.161 413.434C801.693 426.703 804.864 439.948 805.965 453.22C806.493 459.586 803.988 466.325 809.168 472.271C813.797 477.585 817.115 483.147 821.761 488.457C823.495 490.439 828.575 492.788 829.258 494.903C831.656 502.329 828.872 510.514 828.603 518.001C828.46 521.975 828.53 525.951 828.53 529.926C828.53 535.76 837.542 535.568 846.291 536.945C849.556 537.459 852.763 537.902 856.044 538.377C859.763 538.915 860.687 540.874 864.488 541.314C871.299 542.102 878.373 542.258 885.16 543.248C890.878 544.081 890.11 542.012 890.11 539.81C890.11 535.689 890.455 531.531 889.819 527.419C888.087 516.235 887.797 504.969 887.489 493.757C887.3 486.851 884.869 480.032 884.869 473.13" stroke="#3E6245" stroke-width="19" stroke-linecap="round"/>
<path d="M880.939 464.751C880.939 449.824 879.628 434.852 879.628 419.88C879.628 414.974 878.615 410.389 877.299 405.52C874.636 395.668 874.492 386.008 874.388 376.083C874.196 357.903 870.71 339.873 869.074 321.759C867.895 308.711 867.837 295.684 867.837 282.618C867.837 277.97 853.019 278.464 845.563 278.464" stroke="#3E6245" stroke-width="19" stroke-linecap="round"/>
<path d="M841.632 278.464C840.086 280.08 838.077 281.388 836.464 282.976C835.304 284.117 835.23 285.035 834.862 286.27C833.411 291.15 830.042 295.837 828.093 300.666C824.557 309.43 827.22 319.718 827.22 328.563C827.22 350.158 825.919 371.152 836.901 392.162C848.588 414.524 853.424 437.066 853.424 460.167C853.424 482.322 853.424 504.477 853.424 526.631" stroke="#3E6245" stroke-width="19" stroke-linecap="round"/>
<path d="M853.424 526.631C853.034 522.984 850.262 519.886 847.456 516.533C842.55 510.672 840.441 504.763 837.047 498.699C833.486 492.338 831.462 485.913 829.913 479.361C829.082 475.846 826.681 472.593 825.91 469.084C825.346 466.519 823.032 464.195 822.27 461.599C819.394 451.791 815.381 442.003 813.099 432.163C809.396 416.19 809.147 400.351 808.877 384.32C808.667 371.823 803.385 359.293 805.602 346.862C806.561 341.484 806.257 336.069 806.257 330.676C806.257 325.919 805.888 321.035 807.858 316.351C811.497 307.698 821.027 299.07 829.841 291.499C841.889 281.148 854.864 270.707 871.403 261.919C878.679 258.053 886.877 254.44 895.497 251.319C899.825 249.752 901.52 248.705 901.975 251.391C903.379 259.68 902.39 268.149 900.301 276.458C899.208 280.803 893.952 284.57 892.731 288.777C891.851 291.806 889.193 294.816 888.145 297.909C886.546 302.629 884.869 307.449 884.869 312.233C884.869 319.032 882.825 326.652 886.18 333.254" stroke="#3E6245" stroke-width="19" stroke-linecap="round"/>
<rect x="890.11" y="274.596" width="62.8901" height="302.958" fill="#3E6245"/>
</g>
<g filter="url(#filter1_d_57_371)">
<rect x="1932.99" y="591.84" width="982.657" height="288.076" transform="rotate(-179.801 1932.99 591.84)" fill="#3E6245"/>
<path d="M1875 312.191C1247.42 310.016 1436.88 82.3345 934.084 -12.9999" stroke="#3E6245" stroke-width="10"/>
<path d="M1464.34 343.023C1441.38 338.895 1428.27 321.329 1416.76 311.54C1402.24 299.196 1388.81 286.644 1373.53 274.54C1356.31 260.895 1342.99 246.181 1325.83 232.563C1318.81 226.994 1309.06 213.621 1293.78 212.278C1288.85 211.844 1266.41 210.425 1263.75 213.313C1253.09 224.886 1267.21 247.541 1272.91 258.898C1281.5 276.014 1290.16 294.243 1303.88 310.579C1304.95 311.851 1314.11 324.179 1314.13 319.075C1314.19 301.835 1325.81 285.202 1325.87 267.786C1325.89 259.758 1326.24 251.97 1328.84 244.043C1329.72 241.345 1330.95 233.711 1333.36 236.168C1341.76 244.741 1346.54 255.614 1352.37 264.543C1365.61 284.822 1376.45 305.21 1386.04 325.994C1395.35 346.176 1406.45 366.856 1406.38 387.725C1406.38 387.829 1385.73 372.279 1382.04 367.467C1359.8 338.468 1363.03 305.416 1334.99 277.254C1334.81 277.077 1322.38 266.801 1320.72 270.452C1315.54 281.825 1319.99 296.105 1319.95 307.706C1319.93 313.997 1319.9 320.288 1319.88 326.579C1319.88 327.579 1319.94 330.233 1318.59 329.503C1299.74 319.339 1294.36 299.805 1286.62 287.092C1273.32 265.265 1254.39 242.586 1253.78 219.46C1253.35 203.249 1254.12 187.028 1253.95 170.816C1253.85 161.917 1246.75 135.667 1252.27 144.128C1261.88 158.842 1269.8 173.632 1281.18 188.074C1298.45 209.975 1319.32 231.252 1332.66 253.899C1343.21 271.817 1348.78 328.024 1348.84 309.352C1348.9 292.922 1332.71 277.231 1324.28 261.679C1318.5 251.02 1317.67 239.689 1315.08 228.784C1313.05 220.225 1308.57 212.249 1305.21 203.857C1302.8 197.825 1305.68 198.303 1301.69 202.218C1283.47 220.067 1275 243.513 1268.72 263.276C1266.37 270.653 1268.07 266.125 1268.08 261.81" stroke="#3E6245" stroke-width="19" stroke-linecap="round"/>
<path d="M1455.78 299.454C1449.59 299.258 1441.95 295.789 1437.75 293.639C1430.61 289.993 1423.5 285.727 1416.97 281.766C1406.06 275.154 1393.89 267.325 1388.51 259.099C1386.48 255.985 1390.26 260.951 1392.37 259.15C1395.46 256.521 1394.11 252.889 1397.28 250.427C1398.48 249.497 1408.3 250.17 1410.82 250.179C1412.74 250.185 1422.52 250.023 1423.92 249.413C1429.19 247.122 1407.89 236.423 1402.94 235.217C1397.67 233.932 1395.3 231.091 1391.39 229.018C1387.34 226.876 1383.5 224.469 1380.35 221.973C1378.02 220.132 1373.86 219.346 1371.55 217.518C1367.04 213.935 1358.46 211.666 1352.15 209.117C1344.28 205.937 1342.93 201.478 1336.61 198C1327.54 193.012 1319.91 186.075 1312.21 180.51C1304.2 174.717 1297.73 168.333 1289.27 162.656C1282.66 158.219 1277.97 152.932 1272.14 148.178C1269.25 145.817 1267.28 143.191 1264.38 140.886C1261.62 138.692 1258.02 137.108 1255.89 134.588C1253.06 131.249 1247.95 129.229 1243.47 126.432C1241.47 125.188 1230.36 119.175 1237.59 122.134" stroke="#3E6245" stroke-width="19" stroke-linecap="round"/>
<path d="M1215.35 112.1C1210.78 108.137 1207.76 104.097 1201.78 100.511C1198.29 98.4196 1194.63 97.5237 1191.09 95.7168C1185.22 92.714 1177.75 90.6065 1171.61 87.7209C1169.45 86.7014 1156.73 79.4554 1161.72 84.5521C1165.98 88.8934 1157.99 74.6619 1152.02 70.8743C1148.9 68.8996 1143.83 65.7228 1139.96 64.2685C1133.63 61.8939 1125.85 59.9459 1120.04 57.3036C1118.03 56.3912 1116.71 55.1752 1114.52 54.3344C1111.21 53.0647 1106.42 52.7464 1102.81 51.6018C1088.71 47.1361 1080.45 40.8958 1068.87 35.2587C1059.35 30.6241 1043.78 27.9977 1032.22 25.0275C1021.47 22.2643 1011.74 20.3065 1001.82 17.1044C997.763 15.7946 990.96 15.0535 989.023 13.0774" stroke="#3E6245" stroke-width="19" stroke-linecap="round"/>
<path d="M1233 311.294C1229.24 308.691 1226.62 305.657 1224.15 302.708C1216.72 293.825 1209.89 284.794 1202.7 275.861C1190.97 261.309 1181.52 246.239 1172.5 231.21C1167.78 223.356 1168.85 220.857 1184.63 217.866C1193.77 216.131 1203.33 214.552 1213.24 215.199C1227.74 216.145 1234.23 223.146 1239.69 229.23C1251.9 242.842 1262.83 258.579 1263.27 273.711C1263.61 285.643 1258.31 297.014 1256.52 308.831C1255.91 312.831 1255 316.828 1254 320.807C1253.58 322.492 1252.84 322.887 1252.62 321.171C1251.69 314.089 1248.74 307.307 1248.76 300.064C1248.79 290.611 1249.38 281.574 1244.13 272.391C1233.37 253.582 1230.16 233.542 1217.61 215.067C1215.95 212.619 1213.26 207.18 1209.04 208.621C1205.41 209.861 1204.72 222.101 1204.41 223.281C1201.59 233.932 1199.17 244.654 1199.13 255.419C1199.12 257.951 1199.17 250.355 1199.15 247.823C1199.12 242.434 1199.23 236.919 1197.32 231.591C1195.06 225.284 1188.41 219.727 1183.11 213.989C1170.34 200.14 1159.16 186.196 1158.8 170.759C1158.76 168.84 1157.95 166.103 1158.83 164.195C1160.77 160.005 1175.14 157.044 1182 155.794C1194.76 153.47 1204.4 154.478 1213.58 159.517C1222.18 164.241 1222.93 168.514 1222.99 174.817C1223.04 180.488 1224.37 186.118 1217.99 191.099C1210.59 196.87 1192.13 190.08 1186.7 186.639C1178.08 181.178 1174.73 173.315 1171.05 166.819C1164.65 155.539 1159 144.088 1156.1 132.435C1155.13 128.522 1151.39 123.686 1160.14 122.382C1164.26 121.767 1169.3 120.672 1172.66 122.72C1179.26 126.755 1183.09 133.224 1184.83 138.288C1186.36 142.725 1187.02 147.079 1187.7 151.536C1187.89 152.788 1193.31 154.099 1195.55 154.366C1203.9 155.363 1205.41 147.702 1206.72 145.149C1210.36 138.051 1221.51 125.206 1207.46 118.822C1204.13 117.306 1203.28 119.535 1202.58 119.1C1190.9 111.756 1178.84 104.5 1165.17 98.0612C1146 89.0294 1127.05 79.6532 1103.53 73.6567C1101.86 73.2302 1086.79 68.3683 1084.69 71.0101C1082.63 73.5903 1083.17 77.0682 1082.25 79.7782C1079.9 86.7363 1075.39 93.1893 1074.18 100.253C1073.11 106.468 1072.53 112.741 1072.51 118.981C1072.48 127.504 1069.74 137.981 1074.89 146.277C1077.68 150.777 1085.11 161.636 1095.36 163.311C1099 163.907 1111.47 147.688 1112.6 146.113C1120.77 134.681 1119.65 119.454 1117.1 107.556C1115.82 101.589 1110.7 96.2246 1106.38 90.7034C1102.65 85.9369 1099.5 80.8647 1093.55 76.646C1085.97 71.2765 1079.41 68.0553 1076.06 61.503C1075.37 60.1661 1072.25 56.113 1076.52 55.3831C1081.38 54.5508 1089.53 55.1257 1093.69 56.5858C1129.79 69.2613 1134.37 95.229 1131.19 115.312C1130.18 121.715 1116.56 130.236 1105.8 133.33C1098.23 135.506 1102.24 138.83 1102.49 142.944C1103.09 152.822 1098.02 164.951 1109.52 173.612C1112.17 175.61 1115.01 177.311 1119.03 178.55C1122.69 179.675 1125.42 180.905 1127.54 182.857C1135.41 190.129 1139.68 198.898 1143.39 206.918C1146.43 213.49 1149.29 220.176 1149.44 226.926C1149.5 229.457 1149.42 231.991 1149.41 234.523C1149.41 234.68 1149.49 239.285 1148.74 239.13C1144.86 238.329 1146.82 227.101 1146.82 225.516C1146.87 213.026 1146.4 200.756 1141.42 188.473C1138.25 180.656 1136.74 172.652 1133.28 164.881C1130.5 158.658 1125.07 152.888 1123.22 146.519C1120.88 138.46 1119.15 130.541 1119.67 122.389C1119.83 119.891 1122.66 120.346 1127.1 120.719C1151.4 122.76 1157.9 135.277 1166.46 145.525C1173.38 153.802 1182.17 162.859 1185.52 171.81C1188.5 179.801 1187.52 188.302 1187.54 196.377C1187.55 201.442 1188.22 206.748 1186.91 211.789C1183.82 223.642 1175.36 235.334 1167.71 246.571C1165.31 250.095 1163.12 253.842 1159.02 256.977C1156.61 258.815 1153.8 260.586 1152.23 262.669C1150.27 265.251 1145.89 261.499 1143.35 260.167C1128.63 252.427 1124.49 241.596 1124.53 231.265" stroke="#3E6245" stroke-width="19" stroke-linecap="round"/>
<path d="M1079.7 312.753C1089.57 293.711 1099.39 275.03 1106.17 255.613C1110.02 244.592 1113.34 233.375 1118.3 222.466C1121.32 215.82 1126.71 209.436 1130.09 202.815C1130.38 202.242 1131.54 196.903 1134.39 199.511C1140.97 205.516 1143.35 212.816 1144.51 219.533C1146.14 228.929 1145.47 238.441 1145.44 247.858C1145.41 255.004 1146.35 262.377 1143.1 269.385C1138.1 280.208 1116.47 287.762 1116.43 298.941C1116.42 301.433 1116.98 302.597 1122.75 302.909C1135.02 303.573 1143.6 294.987 1151.03 291.317C1157.8 287.98 1165.76 285.14 1173.85 282.693C1176.59 281.863 1182.86 279.413 1186.6 280.009C1193.28 281.074 1195.08 289.307 1195.07 292.207C1195.05 296.917 1182.45 298.234 1174.66 298.996C1172.68 299.19 1166.83 299.695 1166.22 298.303C1163.97 293.117 1162.33 288.391 1162.35 283.059C1162.37 276.123 1161.09 270.805 1152.22 265.25C1136.8 255.599 1123.8 245.239 1111.42 234.538C1102.92 227.194 1089.56 218.592 1085.73 210.111C1084.15 206.608 1085.32 202.451 1085.33 198.899C1085.38 186.991 1085.73 175.073 1085.31 163.166C1084.83 149.5 1081.7 135.85 1080.65 122.18C1080.15 115.623 1082.67 108.692 1077.52 102.551C1072.91 97.0625 1069.61 91.3235 1064.98 85.8394C1063.25 83.7924 1058.18 81.3564 1057.51 79.1758C1055.14 71.5203 1057.95 63.1017 1058.24 55.3932C1058.4 51.3013 1058.35 47.2066 1058.36 43.1138C1058.38 37.1063 1049.37 37.2731 1040.62 35.8245C1037.36 35.2838 1034.16 34.8161 1030.88 34.3157C1027.16 33.7488 1026.24 31.7289 1022.44 31.2626C1015.63 30.4271 1008.56 30.242 1001.78 29.1997C996.063 28.3216 996.824 30.4551 996.816 32.7226C996.801 36.9661 996.441 41.2469 997.063 45.4827C998.755 57.0056 999.004 68.6079 999.272 80.154C999.437 87.2667 1001.84 94.2966 1001.82 101.404" stroke="#3E6245" stroke-width="19" stroke-linecap="round"/>
<path d="M1005.72 110.046C1005.67 125.417 1006.92 140.839 1006.87 156.256C1006.85 161.308 1007.85 166.033 1009.15 171.051C1011.78 181.206 1011.88 191.153 1011.95 201.373C1012.08 220.096 1015.5 238.674 1017.07 257.332C1018.21 270.772 1018.22 284.187 1018.17 297.642C1018.16 302.428 1032.97 301.971 1040.43 301.997" stroke="#3E6245" stroke-width="19" stroke-linecap="round"/>
<path d="M1044.36 302.01C1045.91 300.351 1047.93 299.011 1049.55 297.382C1050.71 296.211 1050.79 295.266 1051.16 293.995C1052.63 288.975 1056.01 284.161 1057.98 279.194C1061.55 270.182 1058.92 259.579 1058.95 250.471C1059.03 228.233 1060.4 206.62 1049.5 184.946C1037.89 161.879 1033.14 138.65 1033.22 114.862C1033.3 92.0478 1033.38 69.2339 1033.45 46.4201" stroke="#3E6245" stroke-width="19" stroke-linecap="round"/>
<path d="M1033.45 46.4201C1033.83 50.1776 1036.59 53.3767 1039.39 56.8398C1044.27 62.8917 1046.36 68.9841 1049.73 75.24C1053.27 81.8027 1055.27 88.426 1056.8 95.1777C1057.62 98.8006 1060.01 102.159 1060.76 105.775C1061.32 108.417 1063.62 110.819 1064.38 113.495C1067.22 123.604 1071.2 133.697 1073.44 143.838C1077.09 160.299 1077.28 176.61 1077.49 193.119C1077.66 205.989 1082.9 218.91 1080.64 231.702C1079.66 237.237 1079.94 242.814 1079.92 248.368C1079.91 253.266 1080.26 258.296 1078.27 263.113C1074.6 272.011 1065.04 280.862 1056.2 288.628C1044.11 299.245 1031.1 309.952 1014.53 318.944C1007.24 322.899 999.031 326.592 990.4 329.776C986.066 331.374 984.367 332.446 983.922 329.679C982.548 321.139 983.567 312.421 985.686 303.872C986.794 299.402 992.063 295.541 993.3 291.213C994.19 288.097 996.859 285.006 997.918 281.826C999.534 276.971 1001.23 272.013 1001.24 267.087C1001.27 260.085 1003.34 252.246 1000.01 245.436" stroke="#3E6245" stroke-width="19" stroke-linecap="round"/>
<rect x="995.87" y="305.825" width="62.8901" height="311.971" transform="rotate(-179.801 995.87 305.825)" fill="#3E6245"/>
</g>
<path d="M370 163C392.908 235.501 443.068 291.276 495.111 345.333C500.153 350.57 514.021 368.876 524.111 362.667C548.072 347.921 573.801 343.888 600.667 335.444C630.679 326.012 666.113 318.239 690.667 297.444C701.265 288.469 702.089 277.105 703.556 264.556C703.972 260.994 707.964 246.453 702.667 254.778C698.031 262.062 693.379 269.115 690 277" stroke="#3E6245" stroke-width="4" stroke-linecap="round"/>
<path d="M592 109C604.939 134.647 617.847 160.316 631.778 185.444C638.846 198.193 648.56 209.244 655.445 222C661.426 233.084 664.358 245.923 669.556 257.444C675.725 271.119 681.898 284.916 686.778 299.111C688.364 303.726 701.138 336.09 695 341C687.192 347.246 667.838 337.667 663.556 329.778C659.029 321.44 660.717 308.261 661.445 299.444C662.444 287.345 663.067 267.317 670.445 256.778C673.636 252.218 677.052 266.26 677.778 271.778C679.676 286.206 678.247 300.339 674.445 314.333C674.217 315.171 672 326.128 672 321.444C672 312.813 674.905 295.147 670 287.667C667.971 284.573 659.317 284.654 657.778 284.556C640.252 283.43 622.556 283.353 605 283.111C588.676 282.886 575.825 282.4 562.667 292.778C560.794 294.255 554.507 297.132 556.889 297C571.043 296.214 586.796 293.981 598.889 286.111C617.918 273.727 574.434 277.043 571.778 277C548.983 276.628 528.481 274.642 506.889 267.444C465.618 253.687 421.776 257.039 379.222 258.889C364.362 259.535 349.72 264.169 334.667 265.444C321.127 266.592 306.692 268.07 293.334 270.556C287.663 271.61 281.571 269.97 276 271.444C274.571 271.823 271.534 274.813 272.445 273.333C279.763 261.44 294.788 256.101 306 249" stroke="#3E6245" stroke-width="27" stroke-linecap="round"/>
<path d="M238.762 265.844C239.843 266.505 240.591 268.128 241.394 269.11C242.318 270.24 243.12 270.883 244.641 270.883C246.216 270.883 247.567 270.379 249.213 270.379C249.773 270.379 250.333 270.379 250.893 270.379C251.585 270.379 252.076 270.806 252.703 271.088C254.092 271.713 255.581 271.555 257.07 271.555" stroke="#3E6245" stroke-width="27" stroke-linecap="round"/>
<path d="M295.87 273.906C296.066 275.086 297.166 275.682 297.363 276.761C297.55 277.791 297.874 278.76 297.885 279.822C297.888 280.125 297.697 282.21 298.165 282.295C299.67 282.568 301.216 282.808 302.756 282.808C304.699 282.808 306.365 283.281 308.262 283.648C312.284 284.426 316.141 284.488 320.234 284.488C324.231 284.488 328.188 285.148 332.168 285.309C333.369 285.357 334.612 285.228 335.807 285.402C336.748 285.539 337.666 285.785 338.513 286.223C339.003 286.477 339.386 286.878 339.904 287.082C341.416 287.679 342.888 288.443 344.345 289.172C345.343 289.671 346.334 289.739 347.415 289.975C350.421 290.628 353.928 290.843 357.008 290.87C359.001 290.888 360.981 290.853 362.961 291.113C364.889 291.366 366.621 292.096 368.429 292.783C369.664 293.253 370.715 294.01 371.975 294.472C373.562 295.054 375.109 296.019 376.781 296.329C377.849 296.527 379.005 296.413 380.084 296.413C381.028 296.413 381.956 296.471 382.893 296.6C383.632 296.701 385.986 296.667 384.367 297.458C381.752 298.735 378.73 299.954 375.708 299.399C374.588 299.193 373.56 298.73 372.423 298.597C371.615 298.501 370.808 298.353 369.997 298.279C369.03 298.191 369.589 297.966 370.277 297.607C373.911 295.711 378.161 294.84 381.027 291.719C382.121 290.528 383.159 289.292 384.265 288.108C384.92 287.407 385.56 286.73 385.898 285.831" stroke="#3E6245" stroke-width="27" stroke-linecap="round"/>
<path d="M392.28 279.281C394.733 279.994 396.599 280.861 398.644 282.351C399.769 283.171 400.855 284.015 401.947 284.88C403.309 285.958 404.554 287.144 405.885 288.267C407.409 289.553 408.803 291.201 409.935 292.839C410.464 293.605 410.75 293.789 409.916 293.894" stroke="#3E6245" stroke-width="27" stroke-linecap="round"/>
<path d="M376.995 294.565C378.193 296.673 379.481 299.162 382.202 299.259C383.022 299.288 383.845 299.268 384.665 299.268C385.677 299.268 386.705 299.53 387.689 299.772C389.423 300.2 391.073 301.096 392.821 301.583C393.908 301.885 395.874 301.953 396.143 303.3" stroke="#3E6245" stroke-width="27" stroke-linecap="round"/>
<path d="M441.325 272.562C444.453 275.098 447.849 277.408 451.421 279.281C452.715 279.959 454.074 280.5 455.387 281.138C457.675 282.25 459.845 283.512 462.208 284.478C464.431 285.387 466.729 286.063 468.964 286.933C470.062 287.36 470.716 287.991 471.633 288.668C475.273 291.356 477.803 294.817 480.591 298.363C482.873 301.267 485.31 304.659 488.429 306.771C489.413 307.437 490.994 307.794 492.161 307.62C494.633 307.251 494.341 303.473 494.569 301.601C495.15 296.827 495.071 292.06 493.701 287.427C493.121 285.467 493.474 283.195 495.409 282.099C496.806 281.307 498.558 281.137 500.112 280.914C501.321 280.74 502.348 280.265 502.482 281.688C502.837 285.465 503.127 289.158 503.135 292.96C503.147 298.858 503.079 304.768 503.676 310.643C504.103 314.849 505.099 318.983 506.028 323.1C506.403 324.763 506.181 326.015 504.684 327.122C502.037 329.081 498.506 329.164 495.371 329.595C492.23 330.026 489.991 328.296 487.272 326.889C484.949 325.686 483.1 325.272 480.535 325.032C478.234 324.817 476.216 324.189 474.059 323.418C469.718 321.865 465.019 321.872 460.575 320.721C458.302 320.132 456.073 319.735 453.717 319.629C451.793 319.543 449.865 319.625 447.941 319.583C446.188 319.544 444.101 319.749 442.389 319.312C440.144 318.74 438.034 317.521 436.155 316.195C434.76 315.21 432.772 314.858 431.116 314.59C428.98 314.245 427.034 313.34 424.939 312.836C423.696 312.537 422.539 312.378 421.263 312.286C420.584 312.236 420.114 312.322 419.658 311.866C419.298 311.506 418.724 311.467 418.314 311.194" stroke="#3E6245" stroke-width="27" stroke-linecap="round"/>
<path d="M414.955 294.733C412.852 295.484 411.31 296.796 409.375 297.794C408.392 298.301 407.72 298.983 407.256 299.996C406.656 301.31 406.725 302.786 406.725 304.195C406.725 305.097 405.986 305.82 405.549 306.584C405.123 307.329 403.272 306.823 405.157 307.667C406.332 308.192 407.618 308.398 408.796 308.926C409.494 309.239 410.147 309.646 410.793 310.055C411.836 310.717 413.262 310.953 414.134 311.791C415.197 312.814 416.201 313.309 417.605 313.713C418.358 313.93 418.85 314.499 419.648 314.544C421.117 314.625 422.476 314.717 423.922 315.057C424.802 315.264 425.618 315.985 426.469 316.317C427.44 316.695 428.391 317.139 429.399 317.408C430.612 317.732 432.097 317.966 433.216 318.537C434.807 319.351 436.374 319.93 438.134 320.32C440.519 320.848 442.495 321.903 444.749 322.858C446.133 323.444 447.403 324.118 448.902 324.332C449.875 324.471 450.856 324.993 451.655 325.555C452.382 326.067 453.28 326.216 454.109 326.506C454.642 326.693 455.061 327.061 455.574 327.281C456.027 327.475 456.542 327.502 457.001 327.691C458.659 328.375 460.442 328.343 462.115 328.998C463.168 329.41 463.867 330.015 463.664 331.181C463.553 331.82 462.453 332.319 463.263 332.777C463.681 333.014 464.806 333.691 463.664 333.365" stroke="#3E6245" stroke-width="27" stroke-linecap="round"/>
<path d="M435.95 302.964C436.205 307.234 436.664 311.552 437.928 315.654C438.676 318.08 440.427 319.873 441.568 322.111C442.121 323.198 442.811 324.22 443.378 325.303C443.704 325.925 443.769 326.737 444.124 327.318C444.774 328.382 445.878 328.606 446.886 329.166C447.357 329.427 448.126 329.595 448.659 329.744C449.034 329.849 449.426 329.847 449.798 329.968C450.565 330.218 450.967 330.991 451.459 331.573C452.115 332.35 452.82 333.035 453.633 333.645C454.42 334.235 455.4 334.675 456.106 335.362C457.064 336.294 457.715 337.37 458.961 337.993C460.324 338.675 462.099 338.379 463.44 339.094C465.595 340.243 467.718 341.329 469.897 342.435C470.678 342.831 471.273 343.478 472.043 343.853C472.994 344.316 474.034 344.48 475.001 344.88C475.749 345.188 476.283 346.01 476.989 346.438C478.462 347.331 479.604 348.724 481.123 349.536C482.192 350.107 483.239 350.297 484.426 350.413C486.604 350.627 488.875 350.561 491.061 350.488C494.393 350.377 497.179 348.023 499.981 346.466C501.609 345.561 503.108 344.459 504.731 343.545C506.192 342.723 507.632 341.931 508.977 340.923C510.117 340.068 511.03 339.2 511.916 338.068C514.044 335.349 516.47 332.935 518.7 330.304C523.472 324.675 526.597 318.21 529.673 311.567C530.427 309.939 531.347 308.081 531.502 306.258C531.604 305.056 531.601 303.841 531.698 302.637C531.759 301.885 531.763 300.834 532.062 300.127C532.411 299.302 532.393 301.892 532.454 302.786C532.96 310.19 532.809 317.6 533.051 325.013C533.162 328.396 533.425 331.777 533.611 335.156C533.675 336.32 533.569 337.974 534.115 339.066C535.316 341.468 532.075 343.253 530.55 344.226C525.741 347.297 521.287 350.726 516.721 354.136C516.015 354.664 515.743 355.153 515.07 354.453C514.583 353.948 514.039 353.491 513.53 353.007C512.057 351.607 509.975 351.274 508.65 349.676C506.405 346.969 506.326 342.915 506.326 339.579" stroke="#3E6245" stroke-width="27" stroke-linecap="round"/>
<path d="M613.15 273.738C614.554 278.569 616.528 283.734 616.65 288.836C616.683 290.247 616.035 291.584 615.409 292.811C614.001 295.569 612.331 298.125 611.256 301.051C610.05 304.336 608.787 308.529 609.437 312.071C609.622 313.08 610.295 314.928 611.34 315.467C612.171 315.897 613.149 316.016 614.084 316.055C617.678 316.207 622.446 315.272 625.748 314.469C631.231 313.136 634.543 312.053 639.465 309.411C643.668 307.156 647.579 303.994 651.11 300.799C654.031 298.156 656.166 295.201 657.651 291.57C657.844 291.098 658.578 290.253 658.09 290.105C657.466 289.917 655.088 291.457 654.936 291.551C650.814 294.098 647.096 298.165 645.026 302.572C643.591 305.628 644.029 309.273 644.065 312.547C644.083 314.189 644.355 315.628 644.559 317.222C644.942 320.211 642.649 323.641 641.172 326.012C639.85 328.135 638.718 329.701 637.122 331.639C635.691 333.376 633.999 335.475 631.85 336.407C630.986 336.781 628.995 337.107 628.174 337.228C625.176 337.669 622.148 337.933 619.141 338.31C615.62 338.752 612.147 339.343 608.597 338.833C606.216 338.491 603.896 337.773 601.58 337.153C598.042 336.207 594.409 335.428 590.942 334.242C589.816 333.857 588.091 333.209 587.172 332.282C586.134 331.235 585.977 329.338 585.745 327.999C584.93 323.302 583.911 318.276 584.261 313.489C584.595 308.916 587.363 306.365 591.101 304.149C592.398 303.379 593.249 302.943 594.591 302.32C595.04 302.111 596.438 301.306 597.082 301.359C598.148 301.446 596.522 305.725 596.466 305.819C595.251 307.876 593.708 309.262 591.903 310.849C588.52 313.822 584.81 316.481 580.92 318.752C578.645 320.081 577.093 320.769 574.78 321.887C573.596 322.461 572.073 322.959 571.346 324.164C570.328 325.855 570.865 328.148 571.85 329.698C574.074 333.194 577.441 336.263 581.051 338.273C582.678 339.179 584.529 339.696 586.043 340.802C587.755 342.052 589.357 343.694 590.755 345.271C591.847 346.502 592.693 347.947 593.872 349.097C594.986 350.183 596.223 350.57 597.754 350.796C601.754 351.384 605.877 351.82 609.922 351.785C611.927 351.767 613.945 351.582 615.95 351.505C616.425 351.486 616.933 351.484 616.388 350.982C615.392 350.064 614.116 349.529 612.982 348.817" stroke="#3E6245" stroke-width="27" stroke-linecap="round"/>
<path d="M604.752 311.698C601.96 313.413 599.907 315.729 598.37 318.612C597.026 321.133 597.467 323.586 597.082 326.273C596.536 330.083 594.179 333.253 592.062 336.351C589.721 339.777 587.58 343.11 584.158 345.514C579.024 349.122 574.107 352.553 572.074 358.802C571.086 361.839 569.918 366.25 571.533 369.299C572.351 370.843 573.48 372.331 574.538 373.713C576.066 375.71 577.861 376.782 580.193 377.67C582.236 378.447 583.938 379.133 585.427 380.805C587.023 382.595 588.111 384.755 590.074 386.198C590.968 386.856 591.958 387.227 592.958 387.691C593.401 387.897 594.552 388.602 594.348 388.158C593.86 387.096 592.567 386.104 591.819 385.265" stroke="#3E6245" stroke-width="27" stroke-linecap="round"/>
<path d="M492.218 354.864C492.218 358.454 498.217 356.048 499.944 358.093C500.586 358.853 501.187 360.094 502.128 360.481C502.652 360.697 502.952 361.152 503.415 361.452C504.47 362.135 505.793 362.258 506.831 362.964C509.179 364.561 511.498 366.033 513.605 367.965C514.691 368.96 515.646 370.139 516.89 370.951C517.598 371.414 518.396 371.666 519.129 372.071C523.301 374.375 527.339 376.76 531.306 379.405C532.69 380.328 534.16 381.083 535.561 381.971C536.744 382.721 537.743 383.722 538.921 384.481C539.896 385.11 540.991 385.466 541.991 386.049C544.414 387.463 546.96 388.599 549.596 389.558C550.976 390.06 552.313 390.424 553.505 391.284C554.685 392.134 555.785 393 557.098 393.645C559.026 394.591 560.284 396.523 561.81 397.974C563.692 399.763 566.171 400.776 568.025 402.556C569.453 403.927 570.758 405.318 572.299 406.578C572.649 406.865 572.77 407.299 573.11 407.595C573.59 408.012 574.01 408.395 574.445 408.864C575.155 409.631 575.808 410.698 576.871 410.963" stroke="#3E6245" stroke-width="27" stroke-linecap="round"/>
<path d="M579.39 398.198C579.39 399.739 578.926 401.976 579.558 403.405C580.045 404.505 580.66 405.592 581.359 406.568C581.803 407.188 582.507 407.561 582.899 408.192C583.312 408.858 583.925 409.305 584.429 409.918C585.053 410.677 585.101 411.212 585.101 412.149C585.101 412.904 585.101 413.66 585.101 414.416C585.101 415.609 586.407 416.397 587.331 416.898C588.441 417.5 589.533 418.592 590.495 419.418C591.657 420.417 592.771 421.598 593.807 422.721C595.491 424.545 597.434 427.084 599.882 427.928C600.76 428.23 601.602 428.914 602.439 429.327C603.885 430.042 605.128 430.977 606.414 431.949C608.196 433.297 609.981 434.572 612.068 435.411C619.294 438.318 624.849 443.907 631.253 448.177C632.91 449.281 634.104 450.776 635.714 451.928C636.548 452.524 637.445 453.195 638.429 453.523C638.827 453.656 640.091 454.206 640.473 454.037C641.487 453.586 642.163 451.711 642.47 450.771C643.202 448.521 643.048 446.086 643.048 443.753C643.048 441.532 643.043 439.312 643.132 437.091C643.194 435.563 643.152 433.802 643.804 432.379C645.449 428.787 648.868 425.976 651.67 423.318C653.313 421.76 654.825 420.224 656.784 419.082C658.445 418.114 659.899 417.08 660.871 415.368C661.33 414.559 661.914 413.319 661.599 412.345C661.248 411.259 659.473 410.721 658.641 410.32C654.128 408.143 649.636 405.759 644.802 404.357C640.855 403.212 636.825 403.624 632.802 404.058C625.298 404.868 617.849 407.149 610.258 406.634C605.269 406.295 600.394 405.374 595.459 404.637C593.554 404.353 592.798 404.286 590.961 404.114C590.368 404.059 589.311 404.099 588.703 403.825C588.188 403.594 588.684 402.297 588.796 402.061C590.823 397.815 596.459 396.983 600.516 396.015C603.585 395.283 607.017 394.787 609.745 393.085C611.163 392.2 611.537 391.022 611.956 389.483C612.342 388.069 612.309 386.711 612.554 385.303C612.69 384.518 612.807 384.305 613.617 384.257C615.753 384.132 617.783 383.802 619.888 383.436C621.458 383.163 623.027 383.105 624.61 382.97C628.624 382.627 632.836 383.911 636.74 384.705C640.609 385.492 644.236 387.455 647.611 389.455C649.159 390.372 650.093 391.46 651.278 392.786C653.012 394.727 654.831 396.477 656.933 398.021C657.611 398.519 659.407 399.197 659.751 400.121C660.123 401.118 660.553 402.051 660.852 403.069" stroke="#3E6245" stroke-width="27" stroke-linecap="round"/>
<path d="M641.368 356.544C642.18 359.125 643.31 361.236 645.082 363.281C647.036 365.535 648.698 368.087 651.054 369.962C653.21 371.678 655.646 372.987 658.127 374.161C660.294 375.186 662.709 376.363 665.098 376.811C666.166 377.011 667.324 376.945 668.41 377.035" stroke="#3E6245" stroke-width="27" stroke-linecap="round"/>
<path d="M657.157 422.385C657.67 422.601 657.86 423.319 658.108 423.766C658.575 424.605 659.162 425.342 659.695 426.136C660.268 426.991 660.835 427.803 661.449 428.637C663.265 431.101 664.017 435.157 661.776 437.548C660.408 439.007 659.037 440.059 658.332 441.962C657.68 443.725 657.241 445.758 656.849 447.598C656.282 450.254 656.247 453.356 655.01 455.828C654.609 456.63 653.437 457.109 652.696 457.489C652.212 457.738 651.639 457.945 651.278 458.366C650.958 458.74 649.894 458.897 650.625 459.262C652.085 459.992 653.27 461.042 654.815 461.66C655.688 462.01 656.74 462.181 657.549 462.677C658.82 463.457 660.052 464.157 661.44 464.73C663.189 465.453 665.041 466.094 666.451 467.427C667.303 468.232 667.999 469.186 668.914 469.918" stroke="#3E6245" stroke-width="27" stroke-linecap="round"/>
<path d="M680.839 423.057C683.146 425.609 685.423 428.024 688.164 430.139C689.515 431.181 690.946 432.047 692.335 433.023C692.546 433.171 692.626 433.287 692.746 433.508C695.132 437.904 696.515 442.923 696.618 447.925C696.641 449.025 696.718 449.854 695.508 450.192C693.814 450.665 691.564 450.949 689.947 450.136C688.891 449.605 687.852 448.869 686.933 448.13C686.564 447.833 685.577 446.954 686.046 447.019C687.713 447.252 689.372 447.855 691.057 448.102C692.694 448.342 694.314 448.446 695.956 448.587" stroke="#3E6245" stroke-width="27" stroke-linecap="round"/>
<path d="M690.245 368.133C688.783 370.913 686.872 373.845 685.99 376.886C685.793 377.566 685.886 378.316 685.804 379.013C685.703 379.865 685.48 380.696 685.3 381.533C684.468 385.392 684.049 389.266 682.78 393.029C681.32 397.361 679.642 402.02 679.365 406.615C679.268 408.231 679.194 409.906 679.272 411.523C679.306 412.232 679.349 413.144 680.13 413.446C682.962 414.54 686.801 413.424 688.92 411.393C689.995 410.363 691.063 408.854 691.906 407.623C693.34 405.529 691.061 402.897 690.077 401.054" stroke="#3E6245" stroke-width="27" stroke-linecap="round"/>
<path d="M669.418 459.337C669.418 461.123 669.479 462.847 669.717 464.618C669.87 465.763 669.789 466.989 670.09 468.108C670.292 468.862 670.637 469.574 670.892 470.31C671.19 471.171 671.791 471.706 672.227 472.484C672.948 473.772 673.798 475.17 675.231 475.638C676.182 475.949 677.112 476.338 678.068 476.628C679.357 477.018 680.716 476.906 682.034 477.103C682.726 477.207 683.501 477.974 684.068 478.335C684.758 478.774 685.392 479.261 686.028 479.772C687.071 480.611 688.272 480.953 689.415 481.592C689.949 481.89 690.523 482.034 691.085 482.264C691.713 482.52 692.136 482.967 692.69 483.337C693.853 484.112 695.473 484.51 696.759 485.035C697.257 485.238 697.498 485.685 697.916 486.005C698.729 486.629 699.787 487.061 700.771 487.312C702.759 487.819 704.326 488.744 706.155 489.57C710.277 491.431 714.861 491.734 719.154 493.06C721.116 493.666 722.939 494.077 724.51 495.486C724.85 495.791 726.629 497.632 726.441 497.632C725.259 497.632 724.04 497.968 722.821 497.968C721.981 497.968 721.186 497.8 720.348 497.8C719.471 497.8 718.618 497.645 717.754 497.502C717.533 497.465 716.396 497.422 717.194 497.707C720.741 498.974 724.168 500.035 727.486 501.887C729.307 502.903 731.435 503.492 733.412 504.192C734.67 504.638 735.752 505.094 737.051 505.386C738.303 505.669 739.614 506.05 740.839 506.441C742.765 507.054 744.452 508.186 746.233 509.091C747.437 509.703 748.631 510.255 749.779 510.976C751.205 511.871 752.528 512.978 754.202 511.816C755.714 510.766 756.695 508.496 757.216 506.805C757.635 505.442 757.687 504.137 757.766 502.727C757.869 500.9 758.205 499.344 758.877 497.632C760.157 494.369 761.359 491.457 761.891 487.984C762.331 485.108 762.868 482.527 764.261 479.94C765.565 477.518 766.889 475.071 767.956 472.531C768.637 470.911 767.804 470.756 766.314 470.068C762.389 468.256 758.788 467.604 754.444 467.921C746.39 468.511 738.21 470.302 731.265 474.537C729.669 475.511 728.18 476.557 726.731 477.738C725.981 478.348 725.183 479.244 724.332 479.735C723.922 479.972 724.482 478.798 724.584 478.335C724.958 476.638 725.305 474.929 725.573 473.212C726.005 470.448 727.019 465.583 724.678 463.33C723.713 462.402 722.399 462.419 721.15 462.603C716.222 463.326 711.341 464.828 706.482 465.906C706.332 465.939 702.801 467.273 702.6 466.102C702.255 464.094 702.611 461.698 702.637 459.691C702.74 451.787 702.997 443.923 703.365 436.027C703.481 433.547 703.492 431.072 703.524 428.59C703.537 427.551 703.461 426.622 704.615 427.685C707.449 430.295 709.89 433.622 712.351 436.596C713.664 438.183 715.117 439.427 716.774 440.6C720.411 443.174 724.126 445.485 727.916 447.841C730.909 449.701 733.968 451.627 736.379 454.242C737.358 455.303 737.899 456.292 738.115 457.657" stroke="#3E6245" stroke-width="27" stroke-linecap="round"/>
<path d="M732.572 332.357C731.439 332.357 730.923 332.76 730.277 333.607C729.134 335.105 727.993 336.298 727.16 338.03C726.245 339.934 725.557 342.055 724.958 344.077C724.329 346.197 723.358 348.298 722.98 350.478C722.749 351.806 722.912 353.152 722.625 354.472C722.217 356.346 721.81 358.246 721.281 360.09C720.515 362.759 719.443 365.201 717.959 367.536C716.733 369.466 714.877 370.945 713.667 372.929C713.338 373.468 712.815 373.857 712.473 374.422C711.874 375.411 711.164 376.393 710.718 377.464C710.401 378.227 709.913 379.327 710.14 380.17C710.775 382.531 712.806 382.819 714.88 382.708C716.877 382.602 718.339 382.144 719.714 380.693C720.597 379.76 721.208 379.282 722.42 378.752C725.611 377.356 729.365 376.126 731.527 373.209C731.574 373.145 731.837 372.41 731.966 372.612C732.263 373.08 732.572 373.522 732.964 373.918C733.697 374.66 733.892 374.518 733.916 373.582C733.944 372.443 734.094 373.218 734.084 373.918C733.994 379.813 732.966 385.645 733.151 391.554C733.346 397.816 733.998 405.029 737.032 410.665C738.931 414.191 742.765 416.175 745.02 419.474C746.921 422.255 747.319 425.375 747.558 428.674C747.628 429.64 747.751 430.597 747.651 431.567C747.489 433.153 747.521 429.976 747.521 429.775" stroke="#3E6245" stroke-width="27" stroke-linecap="round"/>
<path d="M749.368 436.158C750.814 437.877 752.033 440.005 753.866 441.327C754.972 442.125 756.397 442.472 757.72 442.736C758.18 442.828 758.584 442.809 758.961 442.484C760.569 441.1 761.501 438.731 762.451 436.904C764.714 432.554 767.541 428.125 769.076 423.458C770.253 419.878 770.467 415.686 770.121 411.934C769.829 408.77 768.086 407.111 765.847 405.094C761.929 401.564 759.59 397.685 758.121 392.618C756.844 388.216 755.728 383.577 755.228 379.013C754.916 376.162 755.079 373.236 755.079 370.373C755.079 364.547 751.434 359.465 750.637 353.726C750.376 351.847 750.217 350.113 750.339 348.22C750.384 347.522 750.33 346.691 750.628 346.037C750.663 345.959 750.715 345.735 750.749 345.813C751.489 347.489 751.681 349.894 751.962 351.635C753.523 361.303 753.323 371.137 753.567 380.898" stroke="#3E6245" stroke-width="27" stroke-linecap="round"/>
<path d="M746.177 289.023C743.331 290.747 740.933 293.299 738.404 295.452C736.145 297.375 733.885 299.325 731.489 301.079C730.604 301.727 729.605 302.21 728.69 302.814C726.707 304.123 724.82 305.613 722.989 307.125C720.778 308.951 719.206 311.401 716.802 312.985C715.092 314.112 712.969 314.92 711.595 316.485C710.3 317.959 710.401 320.454 710.401 322.298C710.401 324.188 710.518 328.072 713.405 327.309C716.407 326.515 718.752 324.053 720.478 321.607" stroke="#3E6245" stroke-width="27" stroke-linecap="round"/>
<path d="M724.51 252.911C727.126 258.189 730.549 263.063 733.412 268.214C734.502 270.176 735.642 272.111 736.696 274.093C737.49 275.584 738.066 277.196 739.253 278.432C739.947 279.154 740.726 279.8 741.511 280.419C743.117 281.684 745.814 282.064 747.689 282.64C750.284 283.438 752.975 284.574 755.676 284.973C759.567 285.548 763.986 285.45 767.863 284.861C771.967 284.237 766.817 284.812 771.166 284.18C773.197 283.885 775.764 283.757 777.735 283.592C783.44 283.114 789.043 282.152 794.718 281.455C801.638 280.605 808.372 280.504 815.321 280.587C818.152 280.621 820.982 280.613 823.813 280.625C824.801 280.629 825.824 280.449 826.547 281.222C826.938 281.64 827.219 281.96 826.995 282.556C826.135 284.837 823.874 287.588 821.723 288.724C818.818 290.258 814.843 289.628 811.701 289.807C809.419 289.936 807.263 290.128 805.318 291.412C803.608 292.541 802.414 294.057 801.306 295.76C799.232 298.945 797.299 302.259 795.857 305.782C795.147 307.515 794.661 309.42 793.813 311.091C793.518 311.672 793.437 311.599 792.693 311.651C789.232 311.891 785.629 311.651 782.177 311.548C779.607 311.472 773.281 311.235 770.643 311.063C769.543 310.991 765.511 310.761 764.037 310.186C763.154 309.842 763.049 309.231 763.141 308.432C763.28 307.228 763.702 306.112 763.776 304.876C763.925 302.36 764.021 300.71 766.687 299.539C769.804 298.17 773.879 297.542 777.101 297.001C781.402 296.278 785.758 295.76 790.08 295.181C792.134 294.906 794.183 294.588 796.239 294.332C796.579 294.29 797.352 293.926 797.228 294.575C797.105 295.223 796.372 296.641 796.174 297.01C794.602 299.946 792.532 302.218 789.661 303.99C783.858 307.57 776.908 309.354 770.196 310.111C766.168 310.566 762.162 310.617 758.177 309.953C757.075 309.769 755.487 310.028 754.463 309.607C753.395 309.169 755.576 305.421 755.751 304.979" stroke="#3E6245" stroke-width="27" stroke-linecap="round"/>
<path d="M758.606 309.01C760.605 313.444 761.393 318.298 763.374 322.709C764.666 325.585 767.247 327.299 769.925 328.783C773.274 330.64 776.77 331.968 780.581 332.432C785.738 333.06 791.094 332.991 796.267 332.749C799.332 332.606 802.582 332.406 805.486 331.312C806.972 330.752 808.155 329.734 809.387 328.774C810.691 327.757 811.723 326.982 813.418 326.982C814.439 326.982 815.766 326.816 816.693 327.327C818.546 328.35 818.025 332.291 818.046 333.906C818.086 336.997 818.076 340.091 818.027 343.181C817.999 344.991 818.084 346.949 817.729 348.743C817.507 349.864 817.197 350.992 816.926 352.102C816.462 354.001 816.147 354.952 813.94 354.901C810.801 354.829 807.561 354.16 804.497 353.548C801.362 352.923 796.981 352.422 794.391 350.301C793.643 349.688 794.101 349.171 793.654 348.612C793.162 347.997 788.756 349.328 788.643 349.359C783.587 350.733 778.348 353.092 777.548 358.764C777.315 360.418 776.995 362.558 777.623 364.158C778.835 367.245 783.825 367.433 786.45 367.704C790.671 368.139 794.939 368.147 799.169 367.862C800.963 367.742 802.758 367.395 804.562 367.48C808.389 367.66 812.2 367.703 816.03 367.806C817.144 367.837 818.269 368.227 819.371 368.394C820.308 368.536 819.053 367.765 818.886 367.611C817.398 366.237 816.08 364.743 814.705 363.262" stroke="#3E6245" stroke-width="27" stroke-linecap="round"/>
<path d="M767.676 374.852C769.56 375.966 771.447 377.16 773.07 378.64C776.428 381.703 778.554 386.107 780.964 389.894C781.888 391.346 782.768 393.157 783.866 394.513C784.354 395.115 785.624 395.722 786.227 396.071C788.316 397.279 790.52 398.274 792.665 399.374C793.655 399.882 793.784 399.882 794.849 399.486C796.251 398.964 797.661 398.435 799.011 397.788C800.154 397.239 801.069 396.407 802.165 395.81C804.774 394.386 807.976 393.76 810.805 392.973C813.023 392.356 815.324 391.903 817.514 391.191C818.963 390.72 820.074 389.884 821.014 388.671C822.043 387.343 823.49 384.982 823.328 383.175C823.264 382.467 821.2 382.357 820.995 383.138C820.856 383.667 820.614 385.769 819.913 385.769" stroke="#3E6245" stroke-width="27" stroke-linecap="round"/>
<path d="M793.207 421.545C793.207 424.732 793.398 427.993 793.132 431.175C792.954 433.301 792.366 435.357 791.751 437.39C790.995 439.886 790.003 442.295 789.185 444.771C787.998 448.361 785.446 450.935 782.532 453.271C780.728 454.717 778.031 455.869 776.653 457.788C775.654 459.177 776.007 461.676 776.121 463.256C776.389 466.951 778.243 470.099 781.263 472.251C782.565 473.18 784.032 473.898 785.518 474.481C786.761 474.969 788.299 475.64 789.67 475.489C791.648 475.271 793.693 474.586 795.595 474.043C797.134 473.603 798.725 473.196 799.897 472.037C801.917 470.039 801.258 467.448 800.093 465.197C799.123 463.323 798.287 461.235 797.182 459.449C795.811 457.233 793.169 461.564 792.796 462.659C791.837 465.474 791.746 468.83 791.975 471.766C792.197 474.618 793.367 476.458 795.483 478.316C796.982 479.633 798.804 480.7 800.634 481.498C801.201 481.745 801.97 482.131 802.612 482.124C803.118 482.117 802.948 481.299 802.948 481.004" stroke="#3E6245" stroke-width="27" stroke-linecap="round"/>
<path d="M747.353 508.046C749.105 508.84 750.202 509.834 751.524 511.078C752.019 511.545 752.798 511.655 753.427 511.844C754.773 512.247 755.744 513.609 756.852 514.428C758.269 515.477 759.901 516.308 761.629 516.687C762.568 516.892 763.643 517.094 764.597 517.116C765.984 517.148 767.718 516.768 769.01 517.312C769.958 517.711 770.532 518.667 771.39 519.215C772.376 519.845 773.406 520.166 774.506 520.512C775.873 520.942 777.234 521.565 778.575 522.08C779.041 522.259 779.424 522.568 779.881 522.752C780.588 523.036 781.35 522.907 782.074 523.088C783.809 523.521 785.903 524.517 787.328 525.551C788.602 526.476 790.159 526.815 791.639 527.287C793.315 527.822 794.772 528.19 796.547 528.201C799.003 528.217 801.575 527.968 803.993 528.481C805.825 528.87 807.443 529.667 809.153 530.366C810.248 530.814 811.507 530.946 812.55 531.505C813.804 532.176 815.019 532.937 816.329 533.501C817.327 533.931 818.544 533.907 819.595 533.912C821.622 533.922 823.873 534.165 824.914 532.018C826.276 529.209 825.38 524.982 824.615 522.173C824.031 520.028 823.416 517.893 822.749 515.772C821.245 510.988 820.342 506.075 818.989 501.253C818.254 498.635 817.068 496.206 816.31 493.61C816.23 493.334 816.217 493.066 816.217 492.78C816.217 492.217 816.948 493.195 817.094 493.302C820.186 495.577 823.65 497.307 826.78 499.536C829.445 501.432 831.335 504.264 833.863 506.338C837.03 508.937 840.411 511.54 842.793 514.932C843.828 516.407 844.538 518.214 845.172 519.897C845.39 520.476 845.633 521.187 845.583 521.819C845.576 521.906 835.117 519.037 834.861 518.963" stroke="#3E6245" stroke-width="27" stroke-linecap="round"/>
<path d="M749.5 528C989.5 625.5 1173 589 1285 589" stroke="#3E6245" stroke-width="11"/>
<rect x="1188" y="126" width="92" height="235" fill="#3E6245"/>
<path d="M869.212 485.289C867.124 490.71 866.575 496.111 866.06 501.904C865.685 506.111 864.886 511.585 865.484 515.941C865.938 519.247 868.581 520.872 871.329 522.154C872.615 522.754 875.634 524.937 876.875 523.696C877.897 522.675 876.513 526.579 876.07 527.953C874.472 532.916 869.448 534.102 866.382 537.825C864.138 540.55 861.038 541.491 858.121 543.279C857.437 543.698 857.319 544.218 857.108 544.936C856.826 545.895 855.892 546.163 855.566 547.03C854.58 549.661 854.97 549.923 858.305 550.229C861.795 550.549 865.605 549.676 868.453 551.955C869.602 552.874 871.221 553.039 872.457 553.842C873.535 554.543 874.125 555.142 875.426 555.614C881.106 557.672 886.888 558.038 892.731 559.112C902.1 560.832 911.411 562.521 921.035 562.747C922.88 562.791 923.664 563.578 925.315 564.128C927.566 564.878 930.041 563.898 932.242 564.841C935.267 566.138 938.822 566.472 942.022 567.12C945.665 567.858 948.694 568.546 952.469 568.546" stroke="#3E6245" stroke-width="27" stroke-linecap="round"/>
<path d="M1018.74 533.338C1029.46 541.242 1037.24 553.077 1046.52 562.54C1049.92 566.013 1054.54 567.494 1059.29 567.925C1064.26 568.377 1069.28 567.773 1074.25 568.224C1079.43 568.695 1085.52 568.427 1090.4 570.203" stroke="#3E6245" stroke-width="27" stroke-linecap="round"/>
<path d="M1169.1 581.801C1170.3 581.801 1166.68 581.601 1165.51 581.847C1163.59 582.252 1162.12 583.316 1160.36 584.079C1155.92 586.002 1150.29 585.943 1145.52 585.943C1143.53 585.943 1141.75 586.249 1139.79 586.588C1136.5 587.153 1133.04 585.577 1129.66 585.529C1117.89 585.363 1106.21 586.772 1094.45 586.772C1089.08 586.772 1083.7 586.772 1078.32 586.772C1075.91 586.772 1073.49 586.772 1071.07 586.772C1068.55 586.772 1065.21 587.372 1062.79 586.565C1061.14 586.015 1058.89 586.374 1057.22 586.266C1053.77 586.041 1050.51 585.447 1047.23 584.379C1038.46 581.514 1029.73 579.093 1021.69 574.391C1018.33 572.427 1015.06 570.556 1011.56 568.846C1008.31 567.252 1004.57 565.422 1002.04 562.747C1000.81 561.451 1000.93 560.23 1000.93 558.605" stroke="#3E6245" stroke-width="27" stroke-linecap="round"/>
<path d="M821.577 380.493C823.043 382.365 822.918 385.558 823.05 387.765C823.419 393.906 823.221 400.067 824.086 406.174C824.94 412.209 826.172 418.926 828.711 424.492C832.721 433.28 838.519 442.066 844.497 449.713C845.225 450.643 845.288 452.329 846.407 452.888C847.115 453.242 848.295 453.051 848.916 453.579C850.168 454.643 851.82 454.694 853.081 455.719C854.724 457.054 855.786 458.941 856.786 460.758C858.223 463.372 857.378 463.523 854.761 464.671C851.212 466.226 849.721 467.489 846.016 467.156C843.934 466.969 837.265 468.218 835.822 466.696C835.078 465.91 835.241 463.867 834.878 462.853C833.983 460.344 835.053 468.176 835.155 470.838C835.305 474.757 834.897 478.048 836.328 481.699C837.315 484.219 840.119 495.259 844.82 492.561C847.854 490.819 844.168 480.432 843.393 478.524C837.675 464.457 824.252 455.999 816.699 443.177C816.11 442.178 814.391 440.217 814.559 438.874C814.768 437.204 818.189 437.966 818.885 438.138C826.769 440.08 834.108 445.791 839.573 451.6C845.926 458.352 851.503 465.624 859.225 470.976C864.548 474.665 869.268 476.623 873.723 471.298C877.204 467.137 880.169 462.648 881.777 457.422C882.702 454.414 884.803 447.974 883.572 444.742C883.214 443.803 882.113 443.586 881.409 444.19C881.347 444.242 881.236 444.498 881.224 444.236C881.122 441.928 881.242 439.499 881.385 437.217C882.113 425.629 883.585 414.134 883.963 402.515C884.339 390.92 884.124 379.298 884.124 367.698C884.124 362.114 884.124 356.53 884.124 350.946C884.124 348.242 884.587 354.837 883.756 351.36C883.304 349.47 883.268 345.012 881.869 343.582C881.425 343.128 880.689 344.129 880.258 344.594C877.064 348.046 874.012 351.704 870.984 355.295C863.123 364.619 855.408 374.23 851.079 385.786C847.732 394.72 847.399 404.092 848.087 413.492C848.612 420.651 851.99 426.427 854.531 432.96C856.381 437.718 857.509 442.706 859.248 447.504C859.283 447.601 861.982 455.345 862.769 453.993C864.597 450.852 864.859 446.171 865.116 442.717C866.098 429.508 865.484 416.093 865.484 402.86C865.484 395.503 866.215 387.546 864.011 380.401C863.096 377.431 862.273 374.279 861.158 371.38C858.989 365.741 857.2 358.446 857.2 352.74" stroke="#3E6245" stroke-width="27" stroke-linecap="round"/>
<path d="M879.982 184.155C879.982 200.263 880.48 215.966 882.375 231.928C883.369 240.299 884.131 248.589 884.446 257.011C884.929 269.925 885.038 283.167 883.894 296.039C883.814 296.935 884.285 301.067 883.295 301.7C880.977 303.184 877.7 304.532 875.103 305.382C872.555 306.216 869.893 306.953 867.325 307.729C864.947 308.448 862.81 307.182 860.882 305.842C856.249 302.622 851.743 298.406 847.581 294.612C844.236 291.564 842.392 288.12 844.451 283.705C844.681 283.211 849.007 276.659 849.238 278.734C849.733 283.192 846.845 287.999 845.004 291.805C839.841 302.471 833.516 314.742 836.029 327.013C836.609 329.844 837.99 331.68 839.389 334.055C841.129 337.01 842.267 340.512 842.932 343.858C844.206 350.261 845.103 356.448 842.288 362.406C841.032 365.064 839.81 367.775 838.468 370.391C837.83 371.635 838.799 367.613 838.974 366.225C839.497 362.093 839.995 359.009 841.552 355.272C844.796 347.485 844.314 340.69 843.209 332.674C842.522 327.698 841.117 323.436 839.158 318.867C839.144 318.834 845.869 315.933 846.384 315.599C848.197 314.425 851.451 309.375 853.886 310.721C857.893 312.935 860.139 317.274 860.422 321.72C860.844 328.371 857.405 334.077 857.2 340.636C857.152 342.157 857.735 343.214 855.957 343.214" stroke="#3E6245" stroke-width="27" stroke-linecap="round"/>
<path d="M1161.23 284.395C1152.49 280.94 1142.3 280.356 1133.09 278.826C1116.26 276.03 1099.47 273.027 1082.63 270.312C1065.69 267.581 1048.76 264.918 1031.91 261.705C1019.32 259.305 1006.6 256.176 993.799 255.078C986.691 254.468 979.525 254.572 972.398 254.572C965.572 254.572 956.483 253.284 950.444 257.31C945.87 260.36 943.692 265.537 945.819 270.726C949.413 279.492 960.519 281.979 968.831 283.406C995.102 287.913 1021.75 288.25 1048.29 289.55C1055.41 289.898 1076.77 290.551 1069.65 290.608C1049.97 290.766 1030.4 291.317 1010.87 294.106C1006.09 294.79 998.17 296.182 993.155 297.604C993.126 297.612 985.981 299.51 989.956 300.664C994.833 302.08 1000.97 301.642 1005.9 301.7C1016.82 301.829 1027.77 301.793 1038.67 301.194C1042.42 300.988 1070.29 301.179 1061.13 290.953C1056.15 285.394 1048.57 282.161 1041.71 279.747C1028.62 275.137 1014.78 272.368 1000.93 271.577C997.851 271.401 991.164 271.019 987.563 272.613C984.675 273.891 987.774 276.867 989.151 277.63C994.611 280.653 1003.11 280.017 1008.87 280.184C1021.33 280.544 1033.8 280.668 1046.27 280.897C1055.04 281.058 1052.57 281.013 1059.66 281.081C1060.18 281.086 1063.15 280.536 1062.01 281.68C1060.08 283.61 1057.31 286.115 1056.71 288.905C1055.21 295.872 1064.39 298.05 1068.96 299.123C1090.02 304.07 1112.59 303.049 1134.08 303.541C1135.68 303.577 1137.27 303.603 1138.87 303.702C1138.95 303.707 1140.95 303.38 1140.82 304.277C1140.77 304.626 1140.39 304.876 1140.94 305.106C1145.12 306.856 1152.27 304.895 1156.4 303.955C1163.98 302.231 1153.88 301.936 1151.89 301.792C1147.49 301.473 1143.43 301.288 1139 301.148C1135.22 301.028 1123.88 301.388 1127.64 300.918C1130.48 300.562 1153.96 300.214 1153.29 296.177C1152.8 293.161 1139.27 291.601 1138.59 291.483C1124.77 289.096 1110.76 287.824 1096.75 287.202C1092.72 287.024 1088.69 286.921 1084.65 286.926C1082.34 286.929 1080.02 287.011 1077.72 287.225C1076.88 287.304 1075.26 286.958 1075.26 287.801C1075.26 288.662 1076.88 288.427 1077.72 288.583C1083.44 289.639 1091.74 290.055 1096.94 290.309C1110.75 290.985 1122.83 291.207 1136.75 291.207C1143.19 291.207 1149.64 291.195 1156.08 290.976C1160.03 290.842 1163.99 290.682 1167.91 290.148C1169.32 289.956 1172.66 290.051 1171.96 288.813C1170.95 287.035 1168.12 287.347 1166.11 286.972C1154.16 284.744 1136.76 283.646 1125.61 282.922C1100.09 281.265 1074.46 280.133 1048.89 279.885C1045.91 279.856 1042.91 279.833 1039.94 280.046C1039.45 280.081 1038.11 280.473 1038.58 280.621C1040.5 281.224 1042.54 281.291 1044.54 281.496C1062.39 283.319 1080.55 283.25 1098.46 283.382C1125.31 283.581 1152.35 283.911 1179.16 282.186C1186.61 281.706 1207.33 279.324 1200.68 275.927C1196.04 273.558 1180.78 272.85 1177.94 272.705C1161.64 271.873 1145.13 271.785 1128.81 272.383C1128.12 272.408 1126.08 272.568 1126.76 272.613C1129.74 272.808 1137.77 272.217 1139.79 272.061C1150.54 271.225 1161.26 270.003 1172.03 269.253C1179.16 268.756 1177.3 268.949 1182.45 268.701C1186.28 268.516 1174.78 268.641 1170.94 268.655C1145.32 268.745 1119.7 268.993 1094.08 269.759C1067.44 270.556 1039.72 270.514 1013.27 274.546C1012.46 274.669 1010.37 275.651 1011.17 275.835C1014.73 276.65 1018.45 276.457 1022.1 276.571C1044.82 277.28 1067.59 276.939 1090.31 276.939C1101.39 276.939 1112.55 277.211 1123.63 277.031C1129.02 276.944 1113 275.271 1107.64 274.73C1080.43 271.984 1053.07 271.22 1025.74 270.772C1015.03 270.596 1004.32 270.542 993.615 270.542C985.76 270.542 977.903 270.566 970.051 270.772C967.643 270.835 960.998 269.805 962.848 271.347C965.051 273.183 968.565 271.843 971.431 271.923C986.197 272.33 1017.12 272.37 1030.11 272.383C1059.9 272.412 1089.71 272.523 1119.49 271.923C1123.19 271.848 1126.9 271.858 1130.58 271.554C1131.3 271.495 1133.03 271.445 1132.63 270.841C1131.96 269.831 1130.43 269.785 1129.25 269.529C1118.59 267.221 1097.55 264.64 1089.11 263.776C1040.02 258.748 990.708 256.439 941.401 254.733C930.734 254.364 920.051 254.429 909.391 253.881C906.34 253.725 915.496 253.608 918.55 253.559C936.544 253.27 954.541 253.152 972.536 252.869C1001.37 252.415 1030.21 251.984 1059.04 251.35C1068.57 251.14 1157.63 249.633 1182.13 246.586C1183.19 246.454 1184.7 243.954 1183.65 243.756C1169.99 241.181 1119.95 239.904 1110.7 239.752C1097.04 239.527 1083.38 239.628 1069.72 239.844C1048.77 240.175 1038.5 241.154 1066.65 241.317C1082.23 241.406 1097.8 241.267 1113.37 241.087C1123.99 240.963 1185.54 240.11 1202.93 238.923C1203.34 238.896 1202.92 237.8 1202.52 237.773C1193.19 237.139 1183.83 237.109 1174.49 236.99C1142.04 236.578 1109.1 236.001 1076.71 238.716C1057.85 240.298 1071.22 241.808 1077.15 242.099C1095.19 242.984 1113.36 242.596 1131.41 242.513C1137.88 242.484 1144.36 242.473 1150.83 242.375C1155.58 242.304 1160.33 242.229 1165.08 242.007C1167.56 241.891 1170.17 242.209 1172.51 241.363C1173.53 240.995 1170.48 240.572 1169.4 240.442C1159.27 239.215 1140.95 238.806 1132.56 238.624C1104.26 238.011 1075.9 237.959 1047.6 238.647C1046.24 238.68 1042.17 238.89 1043.53 238.969C1056.41 239.719 1069.33 239.193 1082.23 239.108C1101.6 238.979 1118.25 238.78 1137.49 238.141C1143.23 237.951 1148.97 237.759 1154.7 237.359C1160.1 236.981 1162.54 236.383 1155.71 235.84C1135.01 234.193 1114.02 234.246 1093.28 233.999C1084.25 233.891 1075.22 233.815 1066.19 233.815C1059.56 233.815 1052.92 233.854 1046.29 233.999C1043.1 234.069 1039.88 233.894 1036.74 234.459C1030.77 235.536 1048.85 235.312 1054.92 235.38C1078.37 235.643 1101.84 235.327 1125.29 235.103C1130.64 235.052 1136 235.042 1141.35 234.919C1143.35 234.874 1145.4 235.095 1147.33 234.597C1148.24 234.364 1145.51 234.153 1144.57 234.091C1121.14 232.544 1097.43 232.811 1073.97 232.779C1052.99 232.751 1032.25 232.867 1011.29 233.309C1005.36 233.433 999.439 233.551 993.523 233.861C992.389 233.92 989.044 234.224 990.163 234.413C993.146 234.918 996.205 234.78 999.23 234.827C1039.43 235.458 1079.63 233.708 1119.81 232.618C1133.53 232.246 1092.39 231.327 1078.67 231.145C1068.87 231.016 1059.08 230.961 1049.28 230.961C1037.51 230.961 1072.83 230.727 1084.6 230.501C1101.89 230.169 1131.62 229.499 1148.67 228.982C1157.19 228.724 1165.7 228.452 1174.21 228.062C1179.1 227.838 1183.99 227.725 1188.85 227.141C1189.61 227.05 1191.56 226.394 1190.87 226.06C1188.72 225.014 1186.2 224.992 1183.83 224.702C1173.3 223.416 1156.14 222.417 1146.18 222.033C1127.95 221.329 1109.58 221.059 1091.35 221.872C1064.97 223.047 1144.15 222.93 1170.55 222.562C1177.36 222.467 1184.17 222.447 1190.97 222.125C1193.87 221.987 1196.94 222.269 1199.64 221.181C1200.6 220.795 1197.92 219.918 1196.9 219.731C1174.84 215.691 1151.26 215.645 1128.97 214.876C1109.04 214.188 1092.93 213.954 1073.21 213.932C1065.39 213.924 1041.95 214.608 1049.76 214.531C1067.42 214.356 1085.16 212.88 1102.71 211.217C1110.56 210.475 1118.4 209.68 1126.21 208.686C1131.66 207.992 1137.1 207.175 1142.5 206.154C1145.15 205.654 1147.97 205.437 1150.33 204.129C1150.97 203.77 1149.28 202.942 1148.55 202.795C1142.67 201.598 1122.8 201.29 1120.36 201.23C1092.87 200.554 1065.34 200.455 1037.84 201.184C1028.89 201.421 1002.09 203.158 1011.03 202.818C1031.1 202.055 1051.18 200.227 1071.21 198.929C1090.11 197.704 1097.85 197.19 1115.67 196.351C1135.6 195.413 1114.46 195.8 1111.92 195.776C1089.4 195.565 1066.85 195.732 1044.38 197.41C1038.52 197.847 1032.66 198.364 1026.87 199.297C1014.65 201.261 1022.76 202.133 1029.56 202.38C1043.93 202.902 1063.55 201.714 1077.31 200.977C1098.05 199.866 1118.75 198.34 1139.51 197.686C1169.78 196.732 1078.73 198.372 1048.8 202.979C1042.73 203.912 1036.68 205.109 1030.8 206.868C1028.11 207.673 1024.59 208.149 1023.25 210.619C1022.48 212.04 1025.85 212.731 1027.42 213.104C1033.88 214.636 1047.81 214.409 1053.61 214.347C1058.53 214.293 1063.44 214.166 1068.36 213.932C1068.7 213.916 1083.34 213.117 1086.08 212.184C1086.59 212.009 1085.17 211.512 1084.63 211.447C1078.36 210.687 1066.49 211.135 1061.48 211.378C1041.92 212.328 1022.05 214.06 1002.82 217.937C989.062 220.711 996.115 222.435 1004.55 222.608C1018.37 222.893 1032.76 221.867 1046.31 218.995C1058.07 216.502 1047.82 215.095 1043.39 214.784C1033.91 214.119 1021.33 214.118 1012.21 214.14C997.191 214.176 981.705 213.836 966.737 215.543C957.264 216.624 985.827 215.31 995.318 214.393C1002.85 213.665 1010.39 212.9 1017.87 211.769C1023.5 210.919 1042.69 207.821 1049.49 203.945C1050.53 203.353 1051.5 201.344 1050.62 200.54C1047.16 197.396 1032.45 198.145 1030.55 198.238C1026.1 198.458 1021.65 198.923 1017.27 199.711C1013.95 200.308 1010.67 201.195 1007.51 202.38C1005.89 202.99 1003.68 203.435 1003.05 205.05C1002.66 206.059 1004.73 206.577 1005.79 206.799C1011.52 207.995 1023.14 207.232 1027.99 206.845C1032.74 206.466 1037.48 205.997 1042.17 205.234C1045.7 204.661 1049.21 203.914 1052.62 202.841C1054.21 202.338 1056.92 202.206 1057.08 200.54C1057.22 199.112 1054.39 199.407 1052.96 199.297C1049.15 199.004 1045.3 199.18 1041.48 199.343C1023.75 200.096 1005.86 201.701 988.253 203.922C969.29 206.314 983.685 207.067 991.636 207.121C1016.25 207.289 1041.11 205.863 1065.46 202.15C1071.11 201.289 1076.87 200.657 1082.26 198.745C1083.24 198.394 1084.32 196.148 1083.34 195.799C1078.55 194.102 1073.29 194.149 1068.22 193.774C1060.01 193.167 1051.78 193.046 1043.55 192.854C1037.4 192.709 1019.03 193.358 1025.1 192.324C1030.44 191.413 1035.89 191.082 1041.2 190C1047.44 188.731 1053.81 187.671 1059.71 185.283C1062.28 184.239 1067.01 182.551 1066.1 179.921C1065.01 176.772 1059.99 177.04 1056.69 176.561C1050.15 175.612 1036.29 175.456 1029.44 178.816C1028.14 179.456 1026.66 181.569 1027.53 182.728C1029.34 185.127 1032.66 185.968 1035.52 186.893C1055.93 193.511 1079.59 193.117 1100.71 193.498C1117.3 193.797 1134.94 194.23 1151.48 191.887C1158.74 190.858 1150.28 190.615 1149.77 190.644C1144.55 190.952 1137.04 192.08 1132.28 193.13C1128.5 193.965 1124.71 194.866 1121.05 196.144C1118.58 197.007 1115.54 197.434 1113.97 199.527C1113.23 200.512 1115.3 201.881 1116.48 202.242C1120.2 203.386 1124.16 203.583 1128.05 203.853C1136.68 204.452 1153.04 204.318 1161.79 203.807C1165.51 203.59 1169.23 203.241 1172.9 202.634C1174.63 202.348 1176.55 202.2 1177.94 201.138C1178.43 200.761 1177.43 199.875 1176.86 199.619C1173.12 197.933 1165.28 197.862 1162.15 197.824C1148.6 197.66 1134.52 198.53 1121.24 201.414C1119.02 201.895 1116.69 202.352 1114.8 203.6C1114.3 203.93 1114.72 205.18 1115.3 205.326C1117.83 205.963 1120.52 205.813 1123.13 205.694C1135.79 205.117 1149.67 202.662 1161.28 197.364C1163.42 196.388 1165.56 195.149 1167.08 193.36C1170.39 189.463 1164.36 188.029 1162.32 187.492C1147.12 183.5 1128.78 185.651 1113.55 187.193C1106.17 187.941 1098.8 188.957 1091.48 190.207C1085.01 191.314 1066.55 194.027 1072.73 196.259C1076.3 197.549 1080.3 197.031 1084.1 196.904C1098.06 196.434 1118.54 193.951 1132.05 191.611C1139 190.408 1155.9 187.026 1163.81 183.419C1164.98 182.887 1166.57 181.983 1166.53 180.703C1166.49 179.588 1164.76 179.19 1163.67 178.954C1160.35 178.236 1156.92 178.115 1153.52 177.896C1128.98 176.313 1104.21 176.764 1079.63 177.067C1070.93 177.175 1062.22 177.358 1053.51 177.597C1046.43 177.791 1025.25 177.827 1032.27 178.793C1041.3 180.035 1124.5 176.635 1121.22 164.434C1120.68 162.446 1118.16 161.417 1116.18 160.867C1106.61 158.215 1085.2 158.323 1077.29 158.474C1050.62 158.983 1023.53 160.789 997.274 165.676C993.647 166.351 990.019 167.133 986.527 168.323C985.86 168.55 984.483 169.428 985.054 169.842C986.273 170.723 988.016 170.426 989.519 170.486C994.983 170.705 1011.43 170.231 1015.66 169.98C1021.06 169.658 1026.47 169.269 1031.84 168.599C1036.19 168.056 1040.57 167.535 1044.79 166.344C1046.68 165.812 1049.21 165.312 1049.93 163.49C1050.42 162.243 1048.28 161.14 1047 160.729C1040.37 158.589 1026.31 158.468 1020.31 158.658C1004.32 159.164 988.289 161.503 972.766 165.308C969.929 166.004 967.072 166.682 964.344 167.725C962.255 168.523 960.036 169.959 963.607 171.038C976.042 174.795 991.862 174.456 1004.48 173.869C1011 173.565 1017.55 173.136 1023.99 172.005C1025.02 171.824 1043.47 168.155 1045.16 162.892C1045.72 161.144 1042.86 159.608 1041.07 159.21C1036.19 158.128 1031.08 158.23 1026.11 158.658C1020.23 159.164 1014.2 159.784 1008.73 161.995C1006.61 162.854 1002.55 166.153 1004.48 167.402C1009.95 170.955 1017.08 171.063 1023.58 171.637C1034.37 172.589 1045.26 172.622 1056.07 171.959C1061.47 171.627 1089.43 169.329 1097.63 162.432C1098.74 161.493 1096.5 159.267 1095.1 158.865C1088.94 157.098 1076.73 159.492 1071.23 161.051C1070.73 161.194 1055.63 164.821 1066.77 168.024C1072.52 169.677 1078.55 170.191 1084.51 170.716C1100.27 172.105 1132.8 172.897 1148.16 172.879C1156.63 172.869 1165.1 172.735 1173.55 172.212C1178.23 171.921 1183.01 171.765 1187.51 170.44C1188.83 170.052 1190.37 168.676 1190.21 167.31C1189.99 165.513 1188.14 164.22 1186.64 163.214C1181.32 159.659 1169.99 155.873 1164.32 154.746C1151.09 152.12 1135.97 151.78 1122.67 152.26C1114.67 152.55 1106.69 153.281 1098.73 154.17C1092.55 154.862 1086.36 155.67 1080.28 157.001C1077.91 157.52 1074.97 157.756 1073.51 159.693C1072.74 160.71 1075.62 161.298 1076.87 161.511C1082.71 162.501 1102.52 162.608 1106.65 162.616C1123.01 162.646 1140.41 163.406 1156.63 160.591C1167.53 158.7 1154.71 156.061 1152.49 155.712C1130.56 152.264 1107.76 152.408 1085.66 152.099C1075.71 151.96 1065.75 151.947 1055.79 151.938C1048.62 151.932 1041.45 151.999 1034.28 152.053C1031.25 152.076 1028.19 152.584 1025.19 152.168C1022.68 151.821 1030.25 151.978 1032.78 151.846C1051.12 150.894 1062.72 150.253 1081.73 148.51C1085.17 148.194 1111.02 146.14 1118.5 143.286C1126.28 140.32 1102.49 138.039 1094.18 137.625C1076.07 136.723 1057.51 137.019 1039.57 139.88C1036.99 140.292 1034.11 140.25 1031.95 141.721C1031.04 142.343 1033.92 142.863 1035.01 142.987C1039.26 143.467 1043.55 143.49 1047.83 143.516C1068.41 143.641 1089.41 143.208 1109.8 140.248C1113.46 139.718 1117.13 139.098 1120.64 137.947C1121.04 137.817 1126.91 134.954 1122.25 133.667C1118.75 132.698 1115.06 132.474 1111.44 132.217C1094.06 130.988 1068.95 131.006 1052.73 131.067C1040.02 131.114 1027.31 131.369 1014.6 131.55C1006.9 131.659 983.911 132.379 991.498 131.043C1013.13 127.234 1010.55 129.604 1032.37 125.06C1033.95 124.731 1038.4 123.392 1036.81 123.104C1030.62 121.985 1000.95 125.291 999.184 125.498C992.501 126.283 985.815 127.137 979.209 128.42C976.158 129.013 972.856 129.372 970.281 131.113C969.481 131.653 971.586 132.758 972.536 132.93C976.461 133.643 980.492 133.573 984.479 133.69C994.919 133.996 1007.67 133.729 1018.05 133.138C1022.8 132.867 1027.56 132.56 1032.27 131.964C1032.56 131.928 1042.83 130.565 1044.61 128.466C1044.98 128.023 1043.93 127.375 1043.37 127.247C1038.91 126.233 1029.41 127.809 1026.41 128.282C1009.95 130.876 992.161 134.279 977.092 141.721C974.859 142.824 972.223 144.065 971.224 146.346C969.574 150.119 979.161 149.532 983.26 149.131C991.043 148.37 997.575 146.473 1004.78 143.562C1007.22 142.572 1009.6 141.389 1011.89 140.064C1013.43 139.166 1017.27 137.159 1015.71 136.29C1013.11 134.846 1002.75 140.043 1001.19 140.801C999.089 141.816 996.787 142.656 995.134 144.298C990.811 148.591 1000.1 149.244 1000.84 149.269C1009.97 149.579 1021.93 146.886 1030.16 143.654C1032.24 142.836 1059.22 131.912 1051.6 123.242C1049.87 121.269 1046.97 120.532 1044.38 120.09C1035.1 118.505 1007.84 119.365 1001.44 119.584C990.41 119.96 979.388 120.553 968.371 121.194C958.553 121.765 948.736 122.375 938.939 123.219C934.403 123.61 929.804 123.805 925.384 124.899C918.817 126.526 938.934 125.542 945.681 125.037C952.425 124.533 959.18 123.986 965.862 122.943C972.307 121.938 987.521 119.252 993.845 114.337C1001.2 108.617 993.095 100.876 988.322 97.9293C984.804 95.7576 974.858 91.6786 971.846 97.7222C968.086 105.265 984.178 111.512 987.218 112.795C1001.58 118.859 1017.5 122.857 1032.87 125.291C1039.28 126.305 1049.11 128.209 1054.53 122.989C1056.97 120.635 1058.98 115.991 1059.24 112.588C1059.37 110.979 1058.47 110.2 1056.81 110.701C1051.74 112.225 1044.87 117.991 1048.84 124.232C1051.32 128.128 1055.1 131.263 1059.15 133.483C1073.73 141.473 1098.05 147.388 1113.51 150.558C1122.82 152.468 1132.26 153.783 1141.7 154.953C1149.42 155.909 1161.5 157.465 1170.12 155.528C1173.97 154.662 1174.35 151.754 1171.68 149.361C1168.77 146.755 1164.47 145.978 1160.82 145.127C1159.48 144.815 1151.76 143.373 1152.19 140.593C1152.34 139.662 1152.95 139.828 1153 138.799C1153.01 138.452 1152.99 137.959 1152.67 137.809C1150.6 136.814 1144 137.138 1143.05 137.165C1133.75 137.423 1124.42 138.183 1115.16 139.098C1106.06 139.998 1114.45 139.867 1116.54 139.834C1127 139.668 1137.46 139.063 1147.75 137.073C1148.51 136.925 1156.98 135.545 1158.33 133.483C1159.19 132.175 1155.47 134.795 1154.19 135.692" stroke="#3E6245" stroke-width="27" stroke-linecap="round"/>
<path d="M978.979 14.327C981.999 16.0642 984.805 18.1389 988.276 18.7913C990.209 19.1547 993.283 20.0506 994.719 18.216C995.79 16.8479 995.698 14.687 997.688 15.6156C999.999 16.6942 1001.18 17.3597 1003.76 17.6177C1006.29 17.8704 1008.82 19.7689 1010.97 21.0004C1016.06 23.9302 1021.4 26.1994 1026.73 28.7094C1029.77 30.1431 1033.19 31.2532 1036.39 32.3223C1036.75 32.4423 1039.63 32.8606 1038.21 32.4604C1037.37 32.2231 1036.74 31.5878 1036.58 30.7115C1035.67 25.7038 1030.12 28.8615 1027.07 27.1676C1025.97 26.557 1024.75 26.7534 1023.51 26.7534C1021.91 26.7534 1020.99 25.4115 1019.39 25.1196C1016.46 24.587 1012.19 28.5031 1010.37 30.2052C1005.58 34.6902 1007.04 42.3123 1007.19 48.2466C1007.49 60.1564 1012.54 72.8019 1020.1 82.0281C1022.01 84.3569 1024.17 86.5858 1026.52 88.4714C1028.93 90.4001 1029.81 89.5948 1031.03 86.9526C1034.53 79.3833 1037.43 69.5886 1035.15 61.2943C1032.61 52.0236 1023.57 48.4055 1015.61 44.9559C1013.42 44.0069 1008.91 73.1889 1008.83 76.5052C1008.7 81.3309 1010.01 85.5948 1011.52 90.1283C1012.91 94.3186 1014.12 100.592 1017.82 103.452C1018.98 104.349 1021.83 104.112 1023.02 104.212C1030.08 104.805 1039.31 106.27 1046.04 103.475C1052.63 100.734 1054.63 94.6295 1054.76 88.0802C1054.88 81.5605 1055.04 74.7428 1051.93 68.8192C1050.43 65.9728 1048.85 63.2206 1047.42 60.3278C1045.64 56.7496 1044 51.9875 1041.34 48.9369C1038.08 45.2003 1052.43 49.0671 1052.82 49.144C1055.92 49.7446 1060.51 50.1193 1063.43 51.6984C1064.53 52.2896 1065.08 54.3694 1065.73 55.3342C1067.69 58.2244 1070.12 60.6676 1071.99 63.6415C1073.87 66.6157 1076.16 69.279 1078.21 72.1329C1083.03 78.8558 1088.93 84.8776 1094.54 90.9337C1098.98 95.7188 1102.08 101.346 1105.64 106.789C1109.33 112.44 1114.06 117.583 1119.21 121.954C1124.02 126.031 1131.18 127.9 1137.3 128.696C1140.7 129.138 1148.65 128.87 1144.34 123.311C1140.54 118.399 1131.77 118.538 1126.26 117.466C1116.27 115.529 1106.45 112.68 1096.43 111C1093.59 110.523 1087.58 108.868 1084.6 110.287C1082.15 111.459 1084.58 113.973 1085.75 114.935C1090.83 119.078 1097.74 119.335 1103.93 118.387C1108.46 117.694 1112.28 116.231 1115.85 113.37C1118.58 111.19 1120.64 108.568 1123.68 106.743C1126.84 104.846 1130.23 103.347 1133.5 101.68C1135.17 100.835 1137.36 99.038 1139.33 98.9188C1142.23 98.7429 1145.49 99.1226 1148.3 99.7933C1153.36 101.002 1156.2 104.137 1159.9 107.525C1167.24 114.262 1174.92 121.211 1183.3 126.648C1189.54 130.696 1195.55 132.378 1202.98 132.378C1209.24 132.378 1197.04 126.97 1196.14 126.625C1192.56 125.245 1188.92 124.096 1185.53 122.253C1180.48 119.503 1176.01 115.785 1170.99 112.956C1161.81 107.783 1151.52 105.077 1142.29 100.138C1135.14 96.309 1127.75 93.2241 1120.5 89.622C1116.9 87.8298 1113.42 86.7294 1109.43 86.0322C1107.94 85.7714 1104.11 84.805 1102.83 86.3543C1101.11 88.4397 1102.4 91.9861 1101.95 94.4085C1101.88 94.8462 1101.23 93.8645 1100.99 93.488C1100.14 92.1462 1099.23 90.9622 1098.27 89.7141" stroke="#3E6245" stroke-width="27" stroke-linecap="round"/>
<path d="M1013.36 34.6235C1013.29 34.2713 1009.75 26.808 1009.93 26.7534C1012.19 26.0587 1014.21 24.5663 1016.53 24.1991C1019.13 23.79 1021.96 22.2343 1024.59 22.7954C1027.02 23.3148 1029.21 24.268 1031.58 24.9125C1033.91 25.5443 1036.28 25.6592 1038.65 26.1321C1041.17 26.6363 1043.56 27.6311 1045.92 28.6174C1047.96 29.4696 1050 30.2339 1052.18 30.6424C1053.04 30.8036 1054.19 30.6756 1055.01 30.9876C1059.31 32.6239 1064.04 33.2218 1068.33 34.9917C1073.92 37.2927 1079.29 39.8856 1084.88 42.0333C1087.64 43.0918 1089.98 43.868 1092.89 44.2425C1095.15 44.5338 1096.07 45.2502 1098.07 46.2215C1101.9 48.0861 1104.84 51.8933 1108.72 53.5853C1110.18 54.222 1111.72 54.1616 1113.18 54.5979C1115.06 55.1561 1117.32 56.516 1119.12 57.3823C1123.53 59.4996 1128.18 61.6362 1132.93 62.8822C1137.41 64.058 1142.32 65.9169 1146.48 67.9218C1148.09 68.6934 1149.9 68.7227 1151.57 69.3025C1153.07 69.8229 1153.97 70.7456 1155.23 71.6037C1156.34 72.3574 1157.81 72.4371 1158.98 73.1455C1162.1 75.0379 1164.84 76.3684 1168.23 77.7249C1171.85 79.1748 1174.87 81.6326 1178.54 82.9486C1185.49 85.4455 1192.63 87.8661 1199.07 91.44C1200.97 92.4958 1202.34 93.5785 1203.94 94.9148C1204.5 95.3787 1205.1 95.8014 1205.65 96.2725C1205.79 96.3982 1205.26 96.3415 1205.07 96.3415C1202.33 96.3415 1199.59 96.3415 1196.86 96.3415" stroke="#3E6245" stroke-width="27" stroke-linecap="round"/>
<path d="M1018.33 136.106C1013.72 141.006 1009.45 146.129 1005.67 151.708C1004.21 153.865 1003.1 155.683 1002.8 158.221C1002.3 162.426 1002.36 167.052 1002.68 171.268C1002.94 174.656 1003.58 177.889 1003.39 181.325C1003.18 185.385 1001.02 188.544 999.275 192.025" stroke="#3E6245" stroke-width="27" stroke-linecap="round"/>
<path d="M1157.51 78.5303C1159.37 79.9072 1161.55 80.9217 1163.6 81.9821C1164.05 82.2121 1169.75 84.7767 1167.06 83.5239C1162.23 81.2763 1157.18 79.0476 1152.67 76.2061C1149.09 73.9458 1146.65 70.5728 1143.35 67.9908C1140.76 65.959 1137.74 64.5969 1135 62.7901C1133.49 61.7955 1132.17 60.4928 1130.49 59.7986C1128.52 58.9837 1126.8 57.4426 1124.78 56.5769" stroke="#3E6245" stroke-width="27" stroke-linecap="round"/>
<path d="M1109.87 66.9323C1121.99 70.7773 1134.18 74.3846 1146.14 78.7144C1156.01 82.2906 1165.29 87.6052 1175.64 89.7141C1182.78 91.1691 1189.9 92.6764 1197.09 93.9943C1200.68 94.6536 1204.7 93.4004 1208.04 95.0068C1210.31 96.0988 1212.45 96.7459 1214.62 98.1364C1220.47 101.876 1226.66 104.942 1232.41 108.883C1236.36 111.591 1239.61 115.039 1243.87 117.259C1247.12 118.954 1251.97 121.557 1253.58 125.037C1253.95 125.845 1254.76 126.379 1255.49 126.832C1257.09 127.824 1257.4 128.675 1259.22 129.157C1259.77 129.303 1260.36 129.904 1260.32 130.514C1260.25 131.979 1256.1 131.813 1255.21 131.872C1251.75 132.103 1248.24 131.964 1244.77 131.964C1238.92 131.964 1232.7 132.628 1226.96 131.343C1224.02 130.686 1221.35 130.213 1218.9 128.374C1215.7 125.975 1214.57 123.508 1210.34 122.345C1202.26 120.124 1194.32 119.952 1186.04 119.952C1182.59 119.952 1177.11 118.577 1174.49 121.194" stroke="#3E6245" stroke-width="27" stroke-linecap="round"/>
<defs>
<filter id="filter0_d_57_371" x="-48" y="0" width="1001.89" height="588.92" filterUnits="userSpaceOnUse" color-interpolation-filters="sRGB">
<feFlood flood-opacity="0" result="BackgroundImageFix"/>
<feColorMatrix in="SourceAlpha" type="matrix" values="0 0 0 0 0 0 0 0 0 0 0 0 0 0 0 0 0 0 127 0" result="hardAlpha"/>
<feOffset/>
<feComposite in2="hardAlpha" operator="out"/>
<feColorMatrix type="matrix" values="0 0 0 0 0 0 0 0 0 0 0 0 0 0 0 0 0 0 0.25 0"/>
<feBlend mode="normal" in2="BackgroundImageFix" result="effect1_dropShadow_57_371"/>
<feBlend mode="normal" in="SourceGraphic" in2="effect1_dropShadow_57_371" result="shape"/>
</filter>
<filter id="filter1_d_57_371" x="932.98" y="-17.9123" width="1001.01" height="609.752" filterUnits="userSpaceOnUse" color-interpolation-filters="sRGB">
<feFlood flood-opacity="0" result="BackgroundImageFix"/>
<feColorMatrix in="SourceAlpha" type="matrix" values="0 0 0 0 0 0 0 0 0 0 0 0 0 0 0 0 0 0 127 0" result="hardAlpha"/>
<feOffset/>
<feComposite in2="hardAlpha" operator="out"/>
<feColorMatrix type="matrix" values="0 0 0 0 0 0 0 0 0 0 0 0 0 0 0 0 0 0 0.25 0"/>
<feBlend mode="normal" in2="BackgroundImageFix" result="effect1_dropShadow_57_371"/>
<feBlend mode="normal" in="SourceGraphic" in2="effect1_dropShadow_57_371" result="shape"/>
</filter>
</defs>
</svg>
