<svg width="25" height="20" viewBox="0 0 25 20" fill="none" xmlns="http://www.w3.org/2000/svg">
<path d="M8.16505 2L3 9.90805L8.16505 18H17.3883L22 9.90805L17.3883 2H8.16505Z" fill="#575757" stroke="#8F8F8F" stroke-width="4"/>
<path d="M7.20487 15.9871C7.16591 15.8253 7.28508 15.5539 7.38634 15.3475C7.28156 15.309 7.17889 15.2586 7.07925 15.1849C6.72497 14.923 6.52476 14.6071 6.31538 14.2188C6.05455 13.7349 5.75457 13.0398 5.33763 12.7057C4.9373 12.3848 4.61248 11.983 4.24104 11.6301C4.08883 11.4855 4 11.3917 4 11.1671C4 10.5292 4.57583 10.3535 4.79443 9.82532C4.96122 9.42229 5.24229 9.07083 5.42589 8.67318C5.58612 8.32618 5.66548 8.01013 5.88082 7.68876C6.1359 7.3081 6.31567 6.91788 6.51908 6.50746C6.65389 6.23545 6.85665 6.01955 6.9808 5.7345C7.23342 5.15449 8.00399 4.62612 8.50854 4.31985C8.94882 4.0526 9.34434 4.05842 9.8224 3.91515C10.2495 3.78715 10.6478 3.57348 11.0684 3.42294C11.614 3.22762 12.3589 3.32175 12.9174 3.39232L12.9288 3.39377C13.2679 3.43661 13.6229 3.42908 13.9628 3.48334C14.0319 3.49437 14.1004 3.50795 14.168 3.52502C14.5315 3.61688 14.8874 3.70597 15.2612 3.72555C15.7526 3.7513 15.6545 4.04166 15.8689 4.37819C16.1715 4.85322 16.3686 5.37726 16.6905 5.85847C16.9312 6.21832 17.243 6.50791 17.4747 6.8757C17.6198 7.10611 17.7165 7.36784 17.8719 7.59032C18.0262 7.8113 18.1775 8.00772 18.1775 8.294C18.1775 9.03465 18.0769 9.61759 18.7614 10.0186C19.0334 10.1779 18.9719 10.4903 18.9719 10.7806C18.9719 11.1854 19.0919 11.8073 18.8361 12.1369C18.5733 12.4755 18.5833 13.0099 18.2963 13.3656C17.9225 13.8288 17.7848 14.3584 17.5019 14.875C17.1629 15.4939 16.9882 15.9833 16.4257 16.4538C15.9412 16.8589 15.3472 17.1477 14.9047 17.6059C14.7581 17.7577 14.6116 18.0105 14.3751 17.9997C13.9849 17.9818 13.5715 17.7966 13.1868 17.7372C12.6131 17.6484 12.0455 17.6521 11.469 17.6278C11.0358 17.6095 10.6463 17.4342 10.2094 17.5111C9.94442 17.5578 9.72721 17.6971 9.47272 17.7627C9.27143 17.8146 9.07473 17.9284 8.91594 17.7153C8.73311 17.4698 8.68543 16.9756 8.62397 16.6798C8.58003 16.4683 8.60185 16.0745 8.332 16.06C8.13632 16.0495 7.93736 16.06 7.74128 16.06C7.65792 16.06 7.23787 16.1241 7.20487 15.9871Z" fill="#575757"/>
<path d="M13.9609 3C13.9609 3.36623 13.983 3.72918 13.8998 4.08651C13.7574 4.69805 13.4497 5.23582 13.2819 5.83659C13.1458 6.32374 13.0912 6.78151 12.8949 7.25853C12.6724 7.79883 12.4264 8.32011 12.2736 8.8883C11.6938 11.0438 9.25209 11.6912 8.12491 13.4239C7.99013 13.6311 7.99083 13.8218 7.9314 14.0547C7.83439 14.4348 7.65191 14.7777 7.49344 15.1303C7.4178 15.2985 7.14906 15.7553 7.20487 15.9871C7.23787 16.1241 7.65792 16.06 7.74128 16.06C7.93736 16.06 8.13632 16.0495 8.332 16.06C8.60185 16.0745 8.58003 16.4683 8.62397 16.6798C8.68543 16.9756 8.73311 17.4698 8.91594 17.7153C9.07473 17.9284 9.27143 17.8146 9.47272 17.7627C9.72721 17.6971 9.94442 17.5578 10.2094 17.5111C10.6463 17.4342 11.0358 17.6095 11.469 17.6278C12.0455 17.6521 12.6131 17.6484 13.1868 17.7372C13.5715 17.7966 13.9849 17.9818 14.3751 17.9997C14.6116 18.0105 14.7581 17.7577 14.9047 17.6059C15.3472 17.1477 15.9412 16.8589 16.4257 16.4538C16.9882 15.9833 17.1629 15.4939 17.5019 14.875C17.7848 14.3584 17.9225 13.8288 18.2963 13.3656C18.5833 13.0099 18.5733 12.4755 18.8361 12.1369C19.0919 11.8073 18.9719 11.1854 18.9719 10.7806C18.9719 10.4903 19.0334 10.1779 18.7614 10.0186C18.0769 9.61759 18.1775 9.03465 18.1775 8.294C18.1775 8.00772 18.0262 7.8113 17.8719 7.59032C17.7165 7.36784 17.6198 7.10611 17.4747 6.8757C17.243 6.50791 16.9312 6.21832 16.6905 5.85847C16.3686 5.37726 16.1715 4.85322 15.8689 4.37819C15.6545 4.04166 15.7526 3.7513 15.2612 3.72555C14.8874 3.70597 14.5315 3.61688 14.168 3.52502C13.7679 3.42393 13.3369 3.44532 12.9288 3.39377C12.3691 3.32305 11.6177 3.22628 11.0684 3.42294C10.6478 3.57348 10.2495 3.78715 9.8224 3.91515C9.34434 4.05842 8.94882 4.0526 8.50854 4.31985C8.00399 4.62612 7.23342 5.15449 6.9808 5.7345C6.85665 6.01955 6.65389 6.23545 6.51908 6.50746C6.31567 6.91788 6.1359 7.3081 5.88082 7.68876C5.66548 8.01013 5.58612 8.32618 5.42589 8.67318C5.24229 9.07083 4.96122 9.42229 4.79443 9.82532C4.57583 10.3535 4 10.5292 4 11.1671C4 11.3917 4.08883 11.4855 4.24104 11.6301C4.61248 11.983 4.9373 12.3848 5.33763 12.7057C5.75457 13.0398 6.05455 13.7349 6.31538 14.2188C6.52475 14.6071 6.72497 14.923 7.07925 15.1849C7.40915 15.4289 7.77236 15.4176 8.1351 15.5641C9.51988 16.1237 10.7057 17.4793 12.243 17.6205C12.6767 17.6603 13.2394 17.6079 13.5535 17.2413C13.9534 16.7744 14.1274 16.2704 14.6399 15.8886C15.546 15.2138 16.3739 14.6514 16.9621 13.6281C17.3558 12.9431 17.5529 12.1698 17.804 11.4186C17.945 10.9968 18.152 10.4766 18.0417 10.0222C17.8158 9.09222 17.3832 8.3903 16.9281 7.57938C16.7333 7.23228 16.5114 6.78886 16.1812 6.56579C15.6742 6.22325 15.0593 5.71115 14.4667 5.57408C13.5474 5.36142 12.5951 5.51598 11.6998 5.71992C11.0247 5.87372 10.339 5.93106 9.70358 6.24494C9.20177 6.49284 8.65819 6.61844 8.16226 6.87206C7.29866 7.3137 6.45415 8.12627 5.8265 8.89194C5.36054 9.46038 5.21777 10.2761 5.2901 11.0139C5.34494 11.5734 5.61774 12.3663 6.07434 12.6692C6.61202 13.0259 7.50201 13.0772 8.10115 12.9463C9.06512 12.7357 9.99682 12.1516 10.7764 11.5317C11.2772 11.1334 11.7626 10.7074 12.2566 10.2993C12.5982 10.0171 12.9858 9.73348 13.2344 9.34405C13.4059 9.0753 13.4541 8.67031 13.3973 8.35234C13.2891 7.74617 12.5008 7.83876 12.0835 7.87106C11.5415 7.91301 11.0597 8.0946 10.5455 8.25754C10.0836 8.40394 9.59867 8.51718 9.18075 8.78256C8.66612 9.10937 5.29484 11.5353 7.07586 12.0312C8.16729 12.335 9.10354 11.364 9.6255 10.478C9.76453 10.2419 9.73419 9.97331 9.87672 9.73782C10.221 9.16908 10.883 8.69734 11.4622 8.44713C12.2447 8.1091 13.0221 7.85165 13.859 7.71793C14.0975 7.67983 14.4372 7.6045 14.6874 7.67418C15.2614 7.83398 15.4606 8.73098 15.5735 9.25654C15.6867 9.7834 15.6229 10.3863 15.6686 10.9264C15.7316 11.671 15.6818 12.4995 15.2646 13.1213C14.7693 13.8595 13.8459 14.8178 12.956 14.9297C12.4186 14.9973 11.8864 15.155 11.3468 15.1922C10.7854 15.231 11.0727 14.2843 11.2177 14.0255C11.8935 12.8201 13.2969 12.9174 14.3276 12.2754C14.6923 12.0483 15.2169 11.5477 14.959 11.0285C14.8639 10.837 14.8397 10.7347 14.6331 10.7733C14.1403 10.8653 13.6872 11.0247 13.2344 11.2546C12.4596 11.6479 11.721 12.1044 10.9326 12.4723C10.0508 12.8838 9.31185 13.2766 8.57644 13.9417C8.20468 14.2779 8.22523 14.3898 8.7394 14.4776C9.20473 14.5571 9.65404 14.5519 10.1042 14.7073C10.3074 14.7775 10.5337 14.7946 10.7051 14.948C10.7866 15.0209 10.8002 15.1184 10.8579 15.2068C11.0101 15.4404 11.4139 15.425 11.6387 15.4183C13.2497 15.3702 14.6862 14.2509 15.217 12.6109C15.5013 11.7327 15.3573 10.7151 15.1899 9.82897C15.1198 9.45827 14.942 9.29751 14.7927 8.96486C14.6818 8.71781 14.5887 8.47399 14.4498 8.25025" stroke="#8F8F8F" stroke-width="4" stroke-linecap="round"/>
<circle cx="13" cy="10" r="5" fill="#8F8F8F" stroke="#D9D9D9" stroke-width="2"/>
</svg>
