<svg width="111" height="31" viewBox="0 0 111 31" fill="none" xmlns="http://www.w3.org/2000/svg">
<rect width="111" height="31" rx="15.5" fill="#EFFDEF"/>
<path d="M35.8849 22V11.8182H38.0376V20.2251H42.4027V22H35.8849ZM52.7884 16.9091C52.7884 18.0194 52.5779 18.964 52.157 19.7429C51.7393 20.5218 51.1693 21.1167 50.4467 21.5277C49.7275 21.9354 48.9188 22.1392 48.0206 22.1392C47.1158 22.1392 46.3037 21.9337 45.5845 21.5227C44.8653 21.1117 44.2969 20.5168 43.8793 19.7379C43.4616 18.959 43.2528 18.0161 43.2528 16.9091C43.2528 15.7988 43.4616 14.8542 43.8793 14.0753C44.2969 13.2964 44.8653 12.7031 45.5845 12.2955C46.3037 11.8845 47.1158 11.679 48.0206 11.679C48.9188 11.679 49.7275 11.8845 50.4467 12.2955C51.1693 12.7031 51.7393 13.2964 52.157 14.0753C52.5779 14.8542 52.7884 15.7988 52.7884 16.9091ZM50.6058 16.9091C50.6058 16.1899 50.4981 15.5833 50.2827 15.0895C50.0705 14.5956 49.7706 14.2211 49.3828 13.9659C48.995 13.7107 48.541 13.5831 48.0206 13.5831C47.5002 13.5831 47.0462 13.7107 46.6584 13.9659C46.2706 14.2211 45.969 14.5956 45.7536 15.0895C45.5414 15.5833 45.4354 16.1899 45.4354 16.9091C45.4354 17.6283 45.5414 18.2348 45.7536 18.7287C45.969 19.2225 46.2706 19.5971 46.6584 19.8523C47.0462 20.1075 47.5002 20.2351 48.0206 20.2351C48.541 20.2351 48.995 20.1075 49.3828 19.8523C49.7706 19.5971 50.0705 19.2225 50.2827 18.7287C50.4981 18.2348 50.6058 17.6283 50.6058 16.9091ZM61.1344 15.1094C61.0648 14.8674 60.967 14.6536 60.8411 14.468C60.7151 14.2791 60.561 14.12 60.3787 13.9908C60.1998 13.8582 59.9943 13.7571 59.7623 13.6875C59.5336 13.6179 59.28 13.5831 59.0016 13.5831C58.4812 13.5831 58.0239 13.7124 57.6294 13.9709C57.2383 14.2294 56.9334 14.6056 56.7147 15.0994C56.4959 15.59 56.3865 16.1899 56.3865 16.8991C56.3865 17.6084 56.4943 18.2116 56.7097 18.7088C56.9251 19.206 57.2301 19.5855 57.6245 19.8473C58.0189 20.1058 58.4846 20.2351 59.0215 20.2351C59.5087 20.2351 59.9247 20.1489 60.2694 19.9766C60.6174 19.8009 60.8825 19.554 61.0648 19.2358C61.2504 18.9176 61.3432 18.5414 61.3432 18.1072L61.7807 18.1719H59.1557V16.5511H63.4164V17.8338C63.4164 18.7287 63.2275 19.4976 62.8496 20.1406C62.4718 20.7803 61.9514 21.2741 61.2885 21.6222C60.6257 21.9669 59.8667 22.1392 59.0115 22.1392C58.057 22.1392 57.2185 21.9287 56.4959 21.5078C55.7734 21.0836 55.2099 20.482 54.8056 19.7031C54.4045 18.9209 54.204 17.9929 54.204 16.919C54.204 16.0937 54.3233 15.358 54.562 14.7116C54.8039 14.062 55.142 13.5118 55.5762 13.0611C56.0104 12.6103 56.5158 12.2673 57.0925 12.032C57.6692 11.7966 58.294 11.679 58.9668 11.679C59.5435 11.679 60.0804 11.7635 60.5776 11.9325C61.0748 12.0982 61.5156 12.3336 61.9 12.6385C62.2878 12.9434 62.6043 13.3063 62.8496 13.7273C63.0949 14.1449 63.2523 14.6056 63.3219 15.1094H61.1344ZM74.3899 16.9091C74.3899 18.0194 74.1795 18.964 73.7585 19.7429C73.3409 20.5218 72.7708 21.1167 72.0483 21.5277C71.3291 21.9354 70.5204 22.1392 69.6222 22.1392C68.7173 22.1392 67.9053 21.9337 67.1861 21.5227C66.4669 21.1117 65.8984 20.5168 65.4808 19.7379C65.0632 18.959 64.8544 18.0161 64.8544 16.9091C64.8544 15.7988 65.0632 14.8542 65.4808 14.0753C65.8984 13.2964 66.4669 12.7031 67.1861 12.2955C67.9053 11.8845 68.7173 11.679 69.6222 11.679C70.5204 11.679 71.3291 11.8845 72.0483 12.2955C72.7708 12.7031 73.3409 13.2964 73.7585 14.0753C74.1795 14.8542 74.3899 15.7988 74.3899 16.9091ZM72.2074 16.9091C72.2074 16.1899 72.0997 15.5833 71.8842 15.0895C71.6721 14.5956 71.3722 14.2211 70.9844 13.9659C70.5966 13.7107 70.1425 13.5831 69.6222 13.5831C69.1018 13.5831 68.6477 13.7107 68.2599 13.9659C67.8722 14.2211 67.5705 14.5956 67.3551 15.0895C67.143 15.5833 67.0369 16.1899 67.0369 16.9091C67.0369 17.6283 67.143 18.2348 67.3551 18.7287C67.5705 19.2225 67.8722 19.5971 68.2599 19.8523C68.6477 20.1075 69.1018 20.2351 69.6222 20.2351C70.1425 20.2351 70.5966 20.1075 70.9844 19.8523C71.3722 19.5971 71.6721 19.2225 71.8842 18.7287C72.0997 18.2348 72.2074 17.6283 72.2074 16.9091Z" fill="black"/>
</svg>
